<?xml version="1.0" encoding="iso-8859-1"?>
<!-- Generator: Adobe Illustrator 19.0.0, SVG Export Plug-In . SVG Version: 6.00 Build 0)  -->
<svg xmlns="http://www.w3.org/2000/svg" xmlns:xlink="http://www.w3.org/1999/xlink" version="1.1" id="Layer_1" x="0px" y="0px" viewBox="0 0 512.003 512.003" style="enable-background:new 0 0 512.003 512.003;" xml:space="preserve">
<ellipse transform="matrix(-0.9185 0.3954 -0.3954 -0.9185 920.0338 37.3105)" style="fill:#AA6100;" cx="456.172" cy="113.464" rx="53.039" ry="68.924"/>
<path style="fill:#9A4C00;" d="M504.884,92.508c-4.279-9.938-10.093-18.578-16.836-25.596c-0.001,0.002-0.003,0.003-0.005,0.005  c-7.41,27.276-13.525,79.009-21.365,113.252c5.726,0.004,11.377-1.072,16.745-3.382C510.328,165.205,519.937,127.471,504.884,92.508  z"/>
<path style="fill:#CC7400;" d="M315.067,37.15c63.859-27.492,137.914,1.988,165.406,65.847s-1.988,137.914-65.847,165.406  c-63.859,27.492-210.114,29.094-237.607-34.765S251.208,64.643,315.067,37.15z"/>
<g>
	<path style="fill:#AA6100;" d="M415.039,177.842c-54.649,34.261-168.414,57.724-242.371,38.061   c0.533,6.175,1.932,12.119,4.351,17.736c27.492,63.859,173.748,62.257,237.607,34.765s93.34-101.547,65.847-165.406   C480.199,102.36,457.593,151.163,415.039,177.842z"/>
	<path style="fill:#AA6100;" d="M320.264,69.042c-1.712-3.975,0.123-8.585,4.099-10.296c5.355-2.306,10.901-4.162,16.485-5.518   c4.207-1.023,8.444,1.56,9.465,5.766s-1.56,8.444-5.766,9.465c-4.731,1.149-9.328,3.002-13.987,4.683   C325.486,74.973,321.541,72.007,320.264,69.042z"/>
	<path style="fill:#AA6100;" d="M424.689,90.012c-16.637-14.987-37.475-23.97-59.904-23.97c-4.328,0-7.837-3.509-7.837-7.837   s3.509-7.837,7.837-7.837c26.478,0,51.594,10.052,70.724,28.303c3.132,2.987,3.248,7.949,0.26,11.08   C434.229,91.365,429.453,94.303,424.689,90.012z"/>
</g>
<ellipse transform="matrix(-0.9185 0.3954 -0.3954 -0.9185 475.257 348.0432)" style="fill:#9A4C00;" cx="201.763" cy="222.997" rx="60.227" ry="88.293"/>
<path style="fill:#663A00;" d="M223.149,272.695c-21.348,12.558-50.353,0.554-63.628-30.278  c-13.274-30.832-1.724-57.616,20.831-69.129C192.006,167.339,234.427,266.062,223.149,272.695z"/>
<path style="fill:#2D2D30;" d="M225.679,212.691c13.274,30.833,5.907,56.373-2.529,60.004c-8.435,3.632-32.051-8.57-45.326-39.403  c-13.274-30.833-5.907-56.373,2.529-60.004C188.789,169.656,212.405,181.857,225.679,212.691z"/>
<path style="fill:#1D1D1F;" d="M195.064,225.324c-9.266-21.523-8.469-40.456-4.277-51.169c-4.327-1.638-8.008-1.91-10.433-0.866  c-8.435,3.632-15.803,29.171-2.529,60.004c13.274,30.833,36.89,43.034,45.326,39.403c2.547-1.097,4.993-4.202,6.805-8.836  C219.229,259.797,204.522,247.295,195.064,225.324z"/>
<path style="fill:#57A4FF;" d="M214.578,431.6v3.774c0,11.494-9.404,20.898-20.898,20.898H20.898C9.404,456.273,0,446.868,0,435.375  V431.6c0-11.494,9.404-20.898,20.898-20.898H193.68C205.174,410.702,214.578,420.107,214.578,431.6z"/>
<path style="fill:#2488FF;" d="M193.68,410.702H20.898c-0.965,0-0.939,30.507,12.278,45.57H193.68  c11.494,0,20.898-9.404,20.898-20.898V431.6C214.578,420.107,205.174,410.702,193.68,410.702z"/>
<path style="fill:#57A4FF;" d="M226.639,215.022c-17.142,6.059-31.46,18.12-40.439,33.648  c-6.437,11.132-10.142,24.035-10.142,37.793l-0.383,169.808l19.761-0.052c25.35,0,26.192-29.258,26.192-39.326V286.464  c0-8.759,5.812-17.685,6.191-18.289C233.489,259.17,236.179,238.836,226.639,215.022z"/>
<path style="fill:#9BC9FF;" d="M61.719,332.678c-14.437,0-22.785-9.404-22.785-20.898v-14.047c0-11.494,8.869-20.898,22.454-20.898  s23.116,9.404,23.116,20.898v14.047C84.504,323.274,76.156,332.678,61.719,332.678z"/>
<g>
	<path style="fill:#2488FF;" d="M226.639,215.022c-6.419,2.27-12.443,5.38-17.938,9.199v15.637c0,0,16.017,6.356,19.118,28.316   C233.489,259.17,236.179,238.836,226.639,215.022z"/>
	<path style="fill:#2488FF;" d="M186.202,248.671c-6.437,11.133-10.142,24.035-10.142,37.793l-0.383,169.81l19.761-0.052   c9.063-9.133,9.645-36.311,9.645-36.311V278.091c0-3.809,0.716-7.45,2.008-10.808c4.087-10.619,14.005-18.367,25.814-19.289   c0.314-9.351-1.348-20.696-6.265-32.972C209.498,221.083,195.18,233.143,186.202,248.671z"/>
</g>
<path style="fill:#9BC9FF;" d="M225.679,212.69c-3.499-8.127-7.719-14.947-12.188-20.536c-16.053,1.511-30.654,8.055-42.227,18.03  c-16.134,13.903-26.38,34.463-26.38,57.384v141.818c0,16.647-13.543,30.19-30.19,30.19s-30.19-13.543-30.19-30.19v-28.172  c0-12.584-10.201-22.785-22.785-22.785s-22.785,10.201-22.785,22.785v28.172c0,41.774,33.985,75.76,75.76,75.76  c75.76,0,75.76-75.76,75.76-75.76V267.567c0-3.809,0.716-7.45,2.008-10.808c4.357-11.323,15.343-19.382,28.182-19.382l11.798-0.043  C231.557,229.801,229.455,221.462,225.679,212.69z"/>
<path style="fill:#57A4FF;" d="M232.443,237.334c-0.886-7.532-2.987-15.872-6.764-24.643c-3.499-8.127-7.719-14.947-12.188-20.536  c-9.728,0.915-18.917,3.69-27.229,7.945c6.556,6.473,13.007,15.429,17.995,27.018c1.882,4.372,3.336,8.631,4.444,12.743  c3.665-1.587,7.699-2.483,11.942-2.483L232.443,237.334z"/>
<g>
</g>
<g>
</g>
<g>
</g>
<g>
</g>
<g>
</g>
<g>
</g>
<g>
</g>
<g>
</g>
<g>
</g>
<g>
</g>
<g>
</g>
<g>
</g>
<g>
</g>
<g>
</g>
<g>
</g>
</svg>
