<?xml version="1.0" encoding="iso-8859-1"?>
<!-- Generator: Adobe Illustrator 19.0.0, SVG Export Plug-In . SVG Version: 6.00 Build 0)  -->
<svg xmlns="http://www.w3.org/2000/svg" xmlns:xlink="http://www.w3.org/1999/xlink" version="1.1" id="Layer_1" x="0px" y="0px" viewBox="0 0 512.001 512.001" style="enable-background:new 0 0 512.001 512.001;" xml:space="preserve">
<path style="fill:#A78966;" d="M51.005,147.22c0,0-9.495,112.817,10.743,198.953c3.437,14.629,16.506,24.955,31.533,24.955h22.999  c12.732,0,21.775-12.373,17.922-24.507c-10.425-32.838-24.688-98.885-16.323-199.401H51.005z"/>
<path style="fill:#957856;" d="M49.329,178.594c4.918,0.684,22.608,3.634,41.527,12.685c9.467,4.529,17.642,9.831,24.508,15.883  c-0.027-18.406,0.72-38.375,2.514-59.943H51.005C51.005,147.22,49.988,159.311,49.329,178.594z"/>
<g>
	<path style="fill:#C0AB91;" d="M197.291,158.072c0,0-23.477-48.684-91.76-58.481c-28.818-4.135-54.526,18.517-54.526,47.63   c0,0,102.363,9.947,119.945,96.406L197.291,158.072z"/>
	<path style="fill:#C0AB91;" d="M134.6,348.063L134.6,348.063c-4.399,16.117-27.446-4.582-27.446-4.582   s-61.023-47.663-79.516-161.823c-1.826-11.278-17.902-11.85-20.523-0.729C-4.703,231.088-9.202,309.217,54.739,361.071   c8.016,6.5,18.023,10.059,28.344,10.059h33.204C128.514,371.129,137.332,359.717,134.6,348.063z"/>
</g>
<g>
	<path style="fill:#B39A7C;" d="M12.995,173.761c-2.747,1.177-5.027,3.548-5.88,7.167C-4.703,231.087-9.202,309.216,54.739,361.07   c8.016,6.5,18.023,10.059,28.344,10.059h19.583C25.357,322.013,11.429,235.985,12.995,173.761z"/>
	<path style="fill:#B39A7C;" d="M140.587,109.142c-14.85,15.578-26.569,34.191-34.154,54.862   c27.199,13.491,55.941,37.453,64.516,79.622l26.341-85.556C197.291,158.072,182.087,126.563,140.587,109.142z"/>
</g>
<path style="fill:#FFB655;" d="M157.743,173.174c0,0-37.073-7.215-78.438,22.158c-8.965,6.367-10.592,19.023-3.527,27.448  c10.878,12.972,30.891,29.64,63.272,33.321C138.153,255.467,157.743,173.174,157.743,173.174z"/>
<path style="fill:#CC7400;" d="M144.77,228.68c-36.198-13.846-72.808-14.431-73.052-14.434c0.582,3.038,1.912,5.981,4.054,8.534  c10.878,12.972,30.891,29.64,63.272,33.321C138.7,255.859,141.358,243.653,144.77,228.68z"/>
<path style="fill:#A78966;" d="M460.996,147.22c0,0,9.495,112.817-10.743,198.953c-3.437,14.629-16.506,24.955-31.533,24.955  h-22.999c-12.732,0-21.775-12.373-17.922-24.507c10.425-32.838,24.688-98.885,16.323-199.401H460.996z"/>
<path style="fill:#957856;" d="M462.672,178.594c-4.918,0.684-22.608,3.634-41.527,12.685c-9.467,4.529-17.642,9.831-24.508,15.883  c0.027-18.406-0.72-38.375-2.514-59.943h66.873C460.996,147.22,462.012,159.311,462.672,178.594z"/>
<g>
	<path style="fill:#C0AB91;" d="M314.71,158.072c0,0,23.477-48.684,91.76-58.481c28.818-4.135,54.526,18.517,54.526,47.63   c0,0-102.363,9.947-119.945,96.406L314.71,158.072z"/>
	<path style="fill:#C0AB91;" d="M377.401,348.063L377.401,348.063c4.399,16.117,27.446-4.582,27.446-4.582   s61.023-47.663,79.516-161.824c1.826-11.278,17.902-11.85,20.523-0.729c11.818,50.159,16.317,128.288-47.624,180.143   c-8.016,6.5-18.023,10.059-28.344,10.059h-33.204C383.486,371.129,374.668,359.717,377.401,348.063z"/>
</g>
<g>
	<path style="fill:#B39A7C;" d="M499.006,173.761c2.747,1.177,5.027,3.548,5.88,7.167c11.818,50.159,16.317,128.288-47.624,180.143   c-8.016,6.5-18.023,10.059-28.344,10.059h-19.583C486.644,322.013,500.571,235.985,499.006,173.761z"/>
	<path style="fill:#B39A7C;" d="M371.414,109.142c14.85,15.578,26.569,34.191,34.154,54.862   c-27.199,13.491-55.941,37.453-64.516,79.622L314.71,158.07C314.71,158.072,329.913,126.563,371.414,109.142z"/>
</g>
<path style="fill:#FFB655;" d="M354.257,173.174c0,0,37.073-7.215,78.438,22.158c8.965,6.367,10.592,19.023,3.527,27.448  c-10.878,12.972-30.891,29.64-63.272,33.321C373.848,255.467,354.257,173.174,354.257,173.174z"/>
<path style="fill:#CC7400;" d="M367.231,228.68c36.198-13.846,72.808-14.431,73.052-14.434c-0.582,3.038-1.912,5.981-4.054,8.534  c-10.878,12.972-30.891,29.64-63.272,33.321C373.301,255.859,370.642,243.653,367.231,228.68z"/>
<circle style="fill:#FFC477;" cx="256" cy="371.127" r="49.74"/>
<path style="fill:#FFB655;" d="M238.602,371.129c0-21.808,14.04-40.324,33.569-47.037c-5.072-1.743-10.507-2.703-16.171-2.703  c-27.47,0-49.74,22.27-49.74,49.74s22.27,49.74,49.74,49.74c5.663,0,11.099-0.959,16.171-2.703  C252.642,411.453,238.602,392.936,238.602,371.129z"/>
<path style="fill:#FFDAAA;" d="M383.989,219.114c0-70.683-57.3-127.983-127.983-127.983c-68.622,0-124.625,54.008-127.833,121.835  c0,0-6.923,92.824,70.064,166.045c16.173,15.382,41.696,14.761,57.201-1.158c15.505,15.919,41.384,16.905,57.201,1.158  C383.989,307.976,383.989,229.225,383.989,219.114z"/>
<g>
	<path style="fill:#FFC477;" d="M232.819,259.88c0-55.078-39.686-99.939-89.316-101.806c-8.945,16.453-14.393,35.082-15.331,54.895   c0,0-5.472,73.41,47.463,141.162C209.207,338.838,232.819,302.355,232.819,259.88z"/>
	<path style="fill:#FFC477;" d="M335.168,353.484c48.81-63.257,48.821-125.457,48.821-134.366c0-22.102-5.603-42.895-15.466-61.038   c-49.644,1.849-89.342,46.713-89.342,101.802C279.181,301.828,302.264,337.864,335.168,353.484z"/>
	<path style="fill:#FFC477;" d="M189.737,148.255c-2.691-3.391-2.123-8.319,1.266-11.01c12.121-9.62,26.485-16.524,41.538-19.967   c4.22-0.962,8.422,1.674,9.386,5.893c0.964,4.219-1.674,8.422-5.893,9.386c-12.786,2.924-24.465,9.496-35.287,16.964   C196.441,152.493,191.284,150.204,189.737,148.255z"/>
	<path style="fill:#FFC477;" d="M266.086,130.883c-2.872,0-5.763-0.511-8.642-0.557c-4.328-0.069-7.779-3.633-7.71-7.961   c0.069-4.327,3.617-7.75,7.961-7.71c3.384,0.054,6.802,0.274,10.159,0.654c4.301,0.487,7.392,4.369,6.904,8.67   C274.303,127.979,272.371,130.883,266.086,130.883z"/>
</g>
<g>
	<path style="fill:#3E3D42;" d="M247.6,384.126c2.803-1.727,5.44-3.819,7.837-6.28c2.391,2.454,5.028,4.551,7.837,6.288v-51.579   H247.6V384.126z"/>
	<circle style="fill:#3E3D42;" cx="173.412" cy="247.056" r="16.207"/>
	<circle style="fill:#3E3D42;" cx="337.899" cy="247.056" r="16.207"/>
	<path style="fill:#3E3D42;" d="M283.213,328.56c0,15.029-12.184,33.26-27.212,33.26c-15.029,0-27.212-18.23-27.212-33.26   c0-15.029,12.184-15.119,27.212-15.119C271.029,313.442,283.213,313.531,283.213,328.56z"/>
</g>
<g>
	<path style="fill:#2D2D30;" d="M242.068,332.299c-0.885-1.87-2.504-3.335-4.451-4.032c-1.934-0.692-4.124-0.581-5.984,0.3   c-1.074,0.508-2.012,1.268-2.752,2.188c0.659,8.752,5.159,18.21,11.757,24.363c1.104-0.021,2.204-0.264,3.207-0.739   c1.861-0.88,3.335-2.503,4.023-4.446c0.697-1.948,0.589-4.128-0.29-5.989L242.068,332.299z"/>
	<path style="fill:#2D2D30;" d="M283.128,330.659c-0.727-0.875-1.632-1.603-2.667-2.093c-1.861-0.88-4.05-0.992-5.984-0.3   c-1.948,0.697-3.566,2.162-4.451,4.032l-5.509,11.644c-0.881,1.861-0.987,4.042-0.29,5.989c0.688,1.943,2.163,3.566,4.023,4.446   c1.002,0.474,2.024,0.706,3.126,0.727C277.991,348.931,282.494,339.433,283.128,330.659z"/>
</g>
<g>
</g>
<g>
</g>
<g>
</g>
<g>
</g>
<g>
</g>
<g>
</g>
<g>
</g>
<g>
</g>
<g>
</g>
<g>
</g>
<g>
</g>
<g>
</g>
<g>
</g>
<g>
</g>
<g>
</g>
</svg>
