<?xml version="1.0" encoding="iso-8859-1"?>
<!-- Generator: Adobe Illustrator 19.0.0, SVG Export Plug-In . SVG Version: 6.00 Build 0)  -->
<svg xmlns="http://www.w3.org/2000/svg" xmlns:xlink="http://www.w3.org/1999/xlink" version="1.1" id="Layer_1" x="0px" y="0px" viewBox="0 0 511.999 511.999" style="enable-background:new 0 0 511.999 511.999;" xml:space="preserve">
<path style="fill:#FF6243;" d="M506.974,282.382l-48.104-48.104c-6.701-6.701-17.666-6.701-24.367,0l0,0  c-6.701,6.701-6.701,17.666,0,24.367l48.104,48.104c6.701,6.701,17.666,6.701,24.367,0l0,0  C513.675,300.048,513.675,289.083,506.974,282.382z"/>
<path style="fill:#FF3501;" d="M341.607,263.432h104.624c9.476,0,17.229-7.753,17.229-17.229l0,0  c0-9.476-7.753-17.229-17.229-17.229H341.607c-9.476,0-17.229,7.753-17.229,17.229l0,0  C324.378,255.677,332.131,263.432,341.607,263.432z"/>
<path style="fill:#FF6243;" d="M482.519,344.249l-44.72-51.266c-6.23-7.141-17.169-7.887-24.311-1.658l0,0  c-7.141,6.23-7.887,17.169-1.658,24.31l44.72,51.266c6.23,7.141,17.169,7.887,24.31,1.658l0,0  C488.003,362.329,488.749,351.39,482.519,344.249z"/>
<path style="fill:#FF3501;" d="M318.825,314.09l104.381,7.119c9.454,0.645,17.717-6.563,18.362-16.017l0,0  c0.645-9.454-6.563-17.717-16.017-18.362l-104.381-7.119c-9.454-0.645-17.717,6.563-18.362,16.017l0,0  C302.162,305.183,309.371,313.446,318.825,314.09z"/>
<path style="fill:#FF6243;" d="M444.883,402.104l-40.24-54.852c-5.606-7.64-16.444-9.306-24.084-3.701l0,0  c-7.64,5.606-9.306,16.444-3.701,24.084l40.24,54.852c5.606,7.64,16.444,9.306,24.084,3.701l0,0  C448.823,420.582,450.489,409.745,444.883,402.104z"/>
<path style="fill:#FF3501;" d="M284.313,358.257l103.41,15.89c9.366,1.439,18.207-5.047,19.646-14.413l0,0  c1.439-9.366-5.047-18.207-14.413-19.646l-103.41-15.89c-9.366-1.439-18.207,5.047-19.647,14.413l0,0  C268.461,347.976,274.947,356.817,284.313,358.257z"/>
<path style="fill:#FF6243;" d="M398.477,455.366l-36.898-57.154c-5.14-7.961-15.859-10.27-23.821-5.129l0,0  c-7.961,5.14-10.269,15.859-5.129,23.821l36.898,57.154c5.14,7.961,15.859,10.27,23.821,5.129l0,0  C401.308,474.046,403.617,463.327,398.477,455.366z"/>
<path style="fill:#FF3501;" d="M240.807,402.025l102.279,22.026c9.264,1.995,18.476-3.952,20.471-13.216l0,0  c1.995-9.264-3.952-18.476-13.216-20.471l-102.279-22.026c-9.264-1.995-18.476,3.952-20.471,13.216l0,0  C225.595,390.817,231.543,400.029,240.807,402.025z"/>
<g>
	<path style="fill:#CD2A00;" d="M248.062,368.337l102.279,22.026c1.325,0.285,2.573,0.734,3.748,1.293   c-12.435,10.953-25.93,19.721-40.141,26.119l-73.141-15.752c-9.264-1.995-15.212-11.207-13.216-20.471   C229.586,372.289,238.798,366.343,248.062,368.337z"/>
	<path style="fill:#CD2A00;" d="M269.9,338.61c1.439-9.366,10.281-15.852,19.646-14.413l103.41,15.89   c0.63,0.097,1.243,0.233,1.845,0.394c-6.068,11.115-13.261,21.684-21.476,31.454l-89.014-13.678   C274.947,356.817,268.46,347.976,269.9,338.61L269.9,338.61z"/>
	<path style="fill:#CD2A00;" d="M321.17,279.71l93.342,6.366c-2.229,11.484-5.599,22.841-10.018,33.857l-85.668-5.843   c-9.454-0.645-16.662-8.908-16.017-18.362C303.453,286.273,311.715,279.065,321.17,279.71z"/>
	<path style="fill:#CD2A00;" d="M341.607,228.972h74.117c1.322,7.655,1.994,15.762,1.994,24.328c0,3.372-0.116,6.751-0.323,10.131   h-75.788c-9.476,0-17.229-7.753-17.229-17.23C324.378,236.725,332.131,228.972,341.607,228.972z"/>
</g>
<path style="fill:#FF6243;" d="M5.026,282.382l48.104-48.104c6.701-6.701,17.666-6.701,24.367,0l0,0  c6.701,6.701,6.701,17.666,0,24.367l-48.104,48.104c-6.701,6.701-17.666,6.701-24.367,0l0,0  C-1.675,300.048-1.675,289.083,5.026,282.382z"/>
<path style="fill:#FF3501;" d="M170.392,263.432H65.768c-9.476,0-17.229-7.753-17.229-17.229l0,0  c0-9.476,7.753-17.229,17.229-17.229h104.624c9.476,0,17.229,7.753,17.229,17.229l0,0  C187.622,255.677,179.868,263.432,170.392,263.432z"/>
<path style="fill:#FF6243;" d="M29.48,344.249l44.72-51.266c6.23-7.141,17.169-7.887,24.31-1.658l0,0  c7.141,6.23,7.887,17.169,1.658,24.31l-44.72,51.266c-6.23,7.141-17.169,7.887-24.31,1.658l0,0  C23.997,362.329,23.251,351.39,29.48,344.249z"/>
<path style="fill:#FF3501;" d="M193.174,314.09l-104.381,7.119c-9.454,0.645-17.717-6.563-18.362-16.017l0,0  c-0.645-9.454,6.563-17.717,16.017-18.362l104.381-7.119c9.454-0.645,17.717,6.563,18.362,16.017l0,0  C209.837,305.183,202.628,313.446,193.174,314.09z"/>
<path style="fill:#FF6243;" d="M67.117,402.104l40.24-54.852c5.605-7.64,16.444-9.306,24.084-3.701l0,0  c7.64,5.606,9.306,16.444,3.701,24.084l-40.24,54.852c-5.605,7.64-16.444,9.306-24.084,3.701l0,0  C63.176,420.582,61.511,409.745,67.117,402.104z"/>
<path style="fill:#FF3501;" d="M227.686,358.257l-103.41,15.89c-9.366,1.439-18.207-5.047-19.647-14.413l0,0  c-1.439-9.366,5.047-18.207,14.413-19.646l103.41-15.89c9.366-1.439,18.207,5.047,19.647,14.413l0,0  C243.538,347.976,237.053,356.817,227.686,358.257z"/>
<path style="fill:#FF6243;" d="M113.523,455.366l36.898-57.154c5.14-7.961,15.859-10.27,23.821-5.129l0,0  c7.961,5.14,10.27,15.859,5.129,23.821l-36.898,57.154c-5.14,7.961-15.859,10.27-23.821,5.129l0,0  C110.691,474.046,108.383,463.327,113.523,455.366z"/>
<path style="fill:#FF3501;" d="M271.193,402.025l-102.279,22.026c-9.264,1.995-18.476-3.952-20.471-13.216l0,0  c-1.995-9.264,3.952-18.476,13.216-20.471l102.279-22.026c9.264-1.995,18.476,3.952,20.471,13.216l0,0  C286.404,390.817,280.457,400.029,271.193,402.025z"/>
<g>
	<path style="fill:#CD2A00;" d="M263.938,368.337l-102.279,22.026c-1.325,0.285-2.573,0.734-3.748,1.293   c12.435,10.953,25.93,19.721,40.141,26.119l73.141-15.752c9.264-1.995,15.212-11.207,13.216-20.471   C282.414,372.289,273.202,366.343,263.938,368.337z"/>
	<path style="fill:#CD2A00;" d="M242.099,338.61c-1.439-9.366-10.281-15.852-19.646-14.413l-103.41,15.89   c-0.63,0.097-1.243,0.233-1.845,0.394c6.068,11.115,13.261,21.684,21.476,31.454l89.014-13.678   C237.053,356.817,243.539,347.976,242.099,338.61L242.099,338.61z"/>
	<path style="fill:#CD2A00;" d="M190.829,279.71l-93.341,6.367c2.229,11.484,5.599,22.841,10.018,33.857l85.668-5.843   c9.454-0.645,16.662-8.908,16.017-18.362C208.547,286.273,200.285,279.065,190.829,279.71z"/>
	<path style="fill:#CD2A00;" d="M170.392,228.972H96.276c-1.322,7.655-1.994,15.762-1.994,24.328c0,3.372,0.116,6.751,0.323,10.131   h75.787c9.476,0,17.229-7.753,17.229-17.23C187.622,236.725,179.868,228.972,170.392,228.972z"/>
</g>
<path style="fill:#FF3501;" d="M288.833,55.505c0,0-22.498,23.402,47.213,71.923c-0.235,0.337,23.922-34.367,23.922-34.367  L288.833,55.505z"/>
<path style="fill:#CD2A00;" d="M312.641,93.536l12.96-18.618l34.366,18.145c0,0-24.156,34.704-23.922,34.368  c-12.292-8.556-21.707-16.328-28.894-23.33C308.515,100.382,310.351,96.826,312.641,93.536z"/>
<path style="fill:#FF5023;" d="M375.727,70.418c0,0-47.563-43.061-92.298-40.209c-9.352,0.597-12.763,12.6-5.072,17.951  c27.001,18.783,76.002,52.956,76.002,52.956L375.727,70.418z"/>
<g>
	<path style="fill:#FF3501;" d="M336.452,59.328c2.729-3.922,6.006-7.349,9.688-10.21c17.598,10.448,29.587,21.3,29.587,21.3   l-21.368,30.699c0,0-14.265-9.948-31.641-22.059L336.452,59.328z"/>
	<path style="fill:#FF3501;" d="M295.006,249.902L295.006,249.902c10.967,12.17,29.898,13.155,42.068,2.188l95.15-85.74   c12.17-10.967,13.155-29.897,2.188-42.068l0,0c-10.967-12.17-29.897-13.155-42.068-2.188l-95.151,85.74   C285.024,218.801,284.039,237.731,295.006,249.902z"/>
</g>
<path style="fill:#FF6243;" d="M353.604,71.267c8.451-12.142,25.34-14.759,37.052-5.724c30.728,23.704,74.096,64.032,53.254,93.975  c-20.841,29.943-73.72,3.277-106.619-17.308c-12.54-7.846-15.949-24.593-7.498-36.734L353.604,71.267z"/>
<g>
	<path style="fill:#FF3501;" d="M216.994,249.902L216.994,249.902c-10.967,12.17-29.898,13.155-42.068,2.188l-95.15-85.74   c-12.17-10.967-13.155-29.897-2.188-42.068l0,0c10.967-12.17,29.897-13.155,42.068-2.188l95.15,85.74   C226.976,218.801,227.961,237.731,216.994,249.902z"/>
	<path style="fill:#FF3501;" d="M223.167,55.505c0,0,22.498,23.402-47.213,71.923c0.235,0.337-23.922-34.367-23.922-34.367   L223.167,55.505z"/>
</g>
<path style="fill:#FF5023;" d="M136.272,70.418c0,0,47.563-43.061,92.299-40.209c9.352,0.597,12.763,12.6,5.072,17.951  c-27.001,18.783-76.002,52.956-76.002,52.956L136.272,70.418z"/>
<path style="fill:#CD2A00;" d="M199.359,93.536l-12.96-18.618l-34.366,18.145c0,0,24.156,34.704,23.922,34.368  c12.292-8.556,21.707-16.328,28.894-23.33C203.484,100.382,201.648,96.826,199.359,93.536z"/>
<path style="fill:#FF3501;" d="M175.548,59.328c-2.729-3.922-6.006-7.349-9.688-10.21c-17.598,10.448-29.587,21.3-29.587,21.3  l21.368,30.699c0,0,14.265-9.948,31.641-22.059L175.548,59.328z"/>
<path style="fill:#FF6243;" d="M158.396,71.267c-8.451-12.142-25.34-14.759-37.052-5.724  c-30.728,23.704-74.096,64.032-53.254,93.975s73.721,3.278,106.619-17.307c12.54-7.846,15.949-24.593,7.498-36.734L158.396,71.267z"/>
<g>
	<path style="fill:#FF5023;" d="M164.788,80.451l-6.393-9.185c-8.451-12.142-25.34-14.759-37.052-5.725   c-30.728,23.704-74.096,64.032-53.254,93.975c4.903,7.043,11.577,10.953,19.348,12.547C94.101,139.763,164,80.961,164.788,80.451z"/>
	<path style="fill:#FF5023;" d="M347.211,80.451l6.393-9.185c8.451-12.142,25.34-14.759,37.052-5.725   c30.728,23.704,74.096,64.032,53.254,93.975c-4.903,7.043-11.577,10.953-19.348,12.547C417.898,139.763,348,80.961,347.211,80.451z   "/>
</g>
<path style="fill:#FF6243;" d="M396.82,253.3c0,77.773-63.047,156.182-140.82,156.182S115.18,331.073,115.18,253.3  s63.047-95.758,140.82-95.758S396.82,175.527,396.82,253.3z"/>
<g>
	<path style="fill:#FF5023;" d="M327.329,345.335c-3.283-2.82-3.658-7.768-0.838-11.051c2.109-2.454,4.156-5.026,6.086-7.644   c2.568-3.484,7.474-4.227,10.958-1.659c3.484,2.567,4.228,7.473,1.659,10.958c-2.16,2.931-4.242,6.006-6.814,8.56   C333.67,349.172,328.807,346.604,327.329,345.335z"/>
	<path style="fill:#FF5023;" d="M260.786,378.358c-0.289-4.319,2.314-8.269,6.595-8.907c15.298-2.282,30.494-9.299,43.944-20.293   c3.352-2.74,8.289-2.242,11.027,1.108c2.74,3.351,2.243,8.288-1.108,11.027c-15.636,12.781-33.462,20.963-51.551,23.661   C269.301,385.011,261.269,385.567,260.786,378.358z"/>
	<path style="fill:#FF5023;" d="M175.788,246.537c0-41.41,14.61-68.966,38.95-86.89c-57.639,6.577-99.559,30.238-99.559,93.653   c0,77.773,63.047,156.182,140.82,156.182c1.765,0,3.52-0.054,5.269-0.134C210.14,373.88,175.788,310.04,175.788,246.537z"/>
	<path style="fill:#FF5023;" d="M329.889,307.638c-2.058,0-4.075-0.836-5.538-2.299c-1.463-1.452-2.299-3.479-2.299-5.538   c0-2.058,0.836-4.086,2.299-5.538c1.463-1.463,3.479-2.299,5.538-2.299c2.069,0,4.086,0.836,5.548,2.299   c1.452,1.452,2.288,3.479,2.288,5.538c0,2.058-0.836,4.086-2.288,5.538C333.974,306.802,331.958,307.638,329.889,307.638z"/>
	<path style="fill:#FF5023;" d="M314.664,228.972c-2.058,0-4.075-0.836-5.538-2.299c-1.463-1.452-2.299-3.48-2.299-5.538   c0-2.058,0.836-4.086,2.299-5.538c1.463-1.463,3.479-2.299,5.538-2.299c2.069,0,4.086,0.836,5.548,2.299   c1.452,1.452,2.288,3.48,2.288,5.538c0,2.058-0.836,4.086-2.288,5.538C318.75,228.136,316.733,228.972,314.664,228.972z"/>
	<path style="fill:#FF5023;" d="M256,252.001c-2.058,0-4.075-0.836-5.538-2.299c-1.463-1.452-2.299-3.48-2.299-5.538   c0-2.058,0.836-4.086,2.299-5.538c1.463-1.463,3.48-2.299,5.538-2.299c2.069,0,4.086,0.836,5.548,2.299   c1.452,1.452,2.288,3.48,2.288,5.538c0,2.058-0.836,4.086-2.288,5.538C260.085,251.166,258.069,252.001,256,252.001z"/>
	<path style="fill:#FF5023;" d="M279.545,337.778c-2.058,0-4.075-0.836-5.538-2.299c-1.463-1.452-2.299-3.479-2.299-5.538   c0-2.058,0.836-4.086,2.299-5.538c1.463-1.463,3.479-2.299,5.538-2.299c2.069,0,4.086,0.836,5.548,2.299   c1.452,1.452,2.288,3.479,2.288,5.538c0,2.058-0.836,4.086-2.288,5.538C283.631,336.942,281.614,337.778,279.545,337.778z"/>
	<circle style="fill:#FF5023;" cx="280.9" cy="275.267" r="11.835"/>
	<circle style="fill:#FF5023;" cx="237.881" cy="303.939" r="11.835"/>
	<circle style="fill:#FF5023;" cx="205.531" cy="255.999" r="11.835"/>
	<circle style="fill:#FF5023;" cx="348.128" cy="255.999" r="11.835"/>
</g>
<g>
	<path style="fill:#FF3501;" d="M192.545,180.471l21.115,21.244c5.079,5.111,13.783,2.844,15.726-4.094l7.714-27.553   L192.545,180.471z"/>
	<path style="fill:#FF3501;" d="M319.367,180.471l-21.115,21.244c-5.079,5.111-13.783,2.844-15.726-4.094l-7.714-27.553   L319.367,180.471z"/>
</g>
<circle style="fill:#D1E7F8;" cx="211.759" cy="162.23" r="26.509"/>
<path style="fill:#3E3D42;" d="M211.76,170.068c-2.058,0-4.075-0.836-5.538-2.299c-1.463-1.452-2.299-3.48-2.299-5.538  c0-2.058,0.836-4.086,2.299-5.538c1.463-1.463,3.48-2.299,5.538-2.299c2.069,0,4.086,0.836,5.548,2.299  c1.452,1.452,2.288,3.48,2.288,5.538c0,2.058-0.836,4.086-2.288,5.538C215.845,169.231,213.829,170.068,211.76,170.068z"/>
<circle style="fill:#D1E7F8;" cx="300.241" cy="162.23" r="26.509"/>
<path style="fill:#3E3D42;" d="M300.24,170.068c-2.058,0-4.075-0.836-5.538-2.299c-1.463-1.452-2.299-3.48-2.299-5.538  c0-2.058,0.836-4.086,2.299-5.538c1.463-1.463,3.48-2.299,5.538-2.299c2.069,0,4.086,0.836,5.548,2.299  c1.452,1.452,2.288,3.48,2.288,5.538c0,2.058-0.836,4.086-2.288,5.538C304.324,169.231,302.309,170.068,300.24,170.068z"/>
<g>
</g>
<g>
</g>
<g>
</g>
<g>
</g>
<g>
</g>
<g>
</g>
<g>
</g>
<g>
</g>
<g>
</g>
<g>
</g>
<g>
</g>
<g>
</g>
<g>
</g>
<g>
</g>
<g>
</g>
</svg>
