<?xml version="1.0" encoding="iso-8859-1"?>
<!-- Generator: Adobe Illustrator 19.0.0, SVG Export Plug-In . SVG Version: 6.00 Build 0)  -->
<svg xmlns="http://www.w3.org/2000/svg" xmlns:xlink="http://www.w3.org/1999/xlink" version="1.1" id="Layer_1" x="0px" y="0px" viewBox="0 0 512 512" style="enable-background:new 0 0 512 512;" xml:space="preserve">
<circle style="fill:#FFC477;" cx="81.094" cy="84.198" r="55.557"/>
<path style="fill:#FFA733;" d="M81.088,108.41c-13.352,0-24.216-10.863-24.216-24.216s10.863-24.216,24.216-24.216  s24.217,10.863,24.217,24.216S94.442,108.41,81.088,108.41z"/>
<circle style="fill:#FFC477;" cx="430.905" cy="84.198" r="55.557"/>
<path style="fill:#FFA733;" d="M430.912,108.41c-13.353,0-24.217-10.863-24.217-24.216s10.863-24.216,24.217-24.216  c13.352,0,24.215,10.863,24.215,24.216S444.263,108.41,430.912,108.41z"/>
<path style="fill:#663A00;" d="M258.941,390.513h-5.883l-80.937,16.283c0,0,8.509,65.004,47.357,100.453  c9.071,8.277,23.59,5.356,28.753-5.785c3.504-7.559,6.017-15.507,7.767-23.533c1.751,8.025,4.263,15.973,7.767,23.533  c5.164,11.141,19.683,14.061,28.754,5.785c38.849-35.45,47.357-100.453,47.357-100.453L258.941,390.513z"/>
<path style="fill:#9A4C00;" d="M392.029,370.995c0,0,4.403,82.501-43.87,128.554c-13.313,12.701-35.343,5.011-38.053-13.188  c-3.488-23.421-14.555-55.497-46.126-87.898c-0.795-2.387,8.897-77.581,8.897-77.581L392.029,370.995z"/>
<path style="fill:#663A00;" d="M270.386,340.524c1.41-11.255,2.491-19.641,2.491-19.641l119.152,50.112  c0,0,3.361,63.013-28.015,109.639C327.423,461.15,282.951,421.22,270.386,340.524z"/>
<path style="fill:#9A4C00;" d="M119.971,370.995c0,0-4.403,82.501,43.87,128.554c13.313,12.701,35.343,5.011,38.053-13.188  c3.488-23.421,14.555-55.497,46.126-87.898c0.795-2.387-8.897-77.581-8.897-77.581L119.971,370.995z"/>
<path style="fill:#663A00;" d="M241.614,340.524c-1.41-11.255-2.491-19.641-2.491-19.641l-119.152,50.112  c0,0-3.361,63.013,28.015,109.639C184.577,461.15,229.049,421.22,241.614,340.524z"/>
<path style="fill:#AA6100;" d="M406.899,346.545c0,0,4.453,51.864,16.613,89.134c4.938,15.135-9.49,29.378-24.493,24.053  c-37.219-13.211-87.729-47.228-98.607-132.848c1.504,0,49.224-50.11,49.224-50.11L406.899,346.545z"/>
<path style="fill:#9A4C00;" d="M349.642,276.773l57.265,69.772c0,0,4.453,51.864,16.613,89.134c0.889,2.727,1.142,5.423,0.884,7.982  c-0.432,0.01-43.277-2.453-53.45-39.834c-8.962-32.93-23.675-67.785-43.793-103.62C338.718,288.242,349.642,276.773,349.642,276.773  z"/>
<path style="fill:#AA6100;" d="M105.101,348.718c0,0-4.453,51.864-16.613,89.134c-4.938,15.135,9.49,29.378,24.493,24.053  c37.219-13.211,87.729-47.228,98.607-132.848c-1.504,0-49.224-50.11-49.224-50.11L105.101,348.718z"/>
<path style="fill:#9A4C00;" d="M162.358,278.946l-57.265,69.772c0,0-4.453,51.864-16.613,89.134  c-0.889,2.727-1.142,5.423-0.884,7.982c0.432,0.01,42.232-1.753,53.45-39.834c9.644-32.737,23.675-67.785,43.793-103.62  C173.282,290.416,162.358,278.946,162.358,278.946z"/>
<g>
	<path style="fill:#CC7400;" d="M466.174,307.792c0,0,0.766,44.056-22.531,93.598c-9.003,19.146-36.904,16.822-42.444-3.598   c-7.766-28.62-22.052-67.459-48.487-113.925c0.167-3.818,27.995-109.689,27.995-109.689L466.174,307.792z"/>
	<path style="fill:#CC7400;" d="M45.826,307.792c0,0-0.766,44.056,22.531,93.598c9.003,19.146,36.904,16.822,42.444-3.598   c7.766-28.62,22.05-67.459,48.487-113.925c-0.167-3.818-27.995-109.689-27.995-109.689L45.826,307.792z"/>
</g>
<g>
	<path style="fill:#AA6100;" d="M72.021,354.941c28.073-15.937,60.186-44.06,81.91-93.445c-8.128-32.12-22.637-87.317-22.637-87.317   L45.826,307.792c0,0-0.389,22.497,7.888,53.414C60.083,360.295,66.309,358.184,72.021,354.941z"/>
	<path style="fill:#AA6100;" d="M439.979,354.941c-28.073-15.937-60.186-44.06-81.91-93.445   c8.128-32.12,22.637-87.317,22.637-87.317l85.467,133.613c0,0,0.389,22.497-7.888,53.414   C451.917,360.295,445.691,358.184,439.979,354.941z"/>
</g>
<path style="fill:#EE8700;" d="M483.817,301.667c-21.806-48.15-21.146-106.015-21.146-106.015C462.672,0,256,0,256,0  S49.327,0,49.327,195.653c0,0,0.661,57.864-21.145,106.015c-8.048,17.771,11.397,35.644,28.363,26.013  c39.058-22.172,84.035-71.136,90.609-177.541h217.691c6.574,106.405,51.551,155.369,90.609,177.541  C472.42,337.311,491.865,319.439,483.817,301.667z"/>
<g>
	<path style="fill:#FF9811;" d="M49.327,195.654c0,0,0.661,57.864-21.145,106.015c-4.541,10.026-0.328,20.082,7.251,25.215   c45.884-43.011,32.485-119.994,32.485-120.073c-7.277-36.464-6.512-84.875-6.503-85.368   C53.796,142.368,49.327,166.895,49.327,195.654z"/>
	<path style="fill:#FF9811;" d="M462.672,195.654c0,0-0.661,57.864,21.145,106.015c4.541,10.026,0.328,20.082-7.251,25.215   c-45.882-43.011-32.485-119.994-32.485-120.073c7.277-36.464,6.512-84.875,6.503-85.368   C458.203,142.368,462.672,166.895,462.672,195.654z"/>
</g>
<path style="fill:#FFDAAA;" d="M268.328,286.462h-24.655c-32.37,0-58.855,26.485-58.855,58.855v10.339  c0,32.37,26.485,58.855,58.855,58.855h24.655c32.37,0,58.855-26.485,58.855-58.855v-10.339  C327.183,312.946,300.698,286.462,268.328,286.462z"/>
<g>
	<path style="fill:#FFC477;" d="M230.272,355.656v-10.339c0-28.821,21.002-52.96,48.455-57.909c-3.379-0.609-6.851-0.946-10.4-0.946   h-24.655c-32.37,0-58.855,26.485-58.855,58.855v10.339c0,32.37,26.485,58.855,58.855,58.855h24.655c3.548,0,7.021-0.336,10.4-0.946   C251.275,408.616,230.272,384.478,230.272,355.656z"/>
	<path style="fill:#FFC477;" d="M327.183,355.656v-10.339c0-32.37-26.485-58.855-58.855-58.855h-24.655   c-32.37,0-58.855,26.485-58.855,58.855v10.339c0,12.398,3.895,23.925,10.509,33.439c3.494,0.464,7.039,0.709,10.62,0.709   c18.451,0,35.985-6.253,50.054-17.541c14.069,11.287,31.601,17.539,50.052,17.541c0.004,0,0.004,0,0.007,0   c3.579,0,7.122-0.245,10.615-0.708C323.287,379.581,327.183,368.054,327.183,355.656z"/>
</g>
<path style="fill:#FFB655;" d="M243.672,286.462c-32.37,0-58.855,26.485-58.855,58.855v10.339c0,12.398,3.895,23.925,10.509,33.439  c3.494,0.464,7.039,0.708,10.62,0.708c10.954,0,21.576-2.219,31.35-6.372c-4.474-8.285-7.024-17.744-7.024-27.775v-10.339  c0-28.821,21.002-52.96,48.455-57.909c-3.379-0.609-6.851-0.946-10.4-0.946H243.672z"/>
<path style="fill:#3E3D42;" d="M258.975,333.121h-5.951c-13.049,0-23.724,10.676-23.724,23.724s10.676,23.724,23.724,23.724h5.951  c13.049,0,23.724-10.676,23.724-23.724C282.699,343.796,272.023,333.121,258.975,333.121z"/>
<path style="fill:#2D2D30;" d="M258.975,333.121h-5.951c-13.049,0-23.724,10.676-23.724,23.724c0,10.44,6.837,19.355,16.252,22.504  c3.649-2.078,7.146-4.438,10.447-7.085c3.301,2.648,6.798,5.007,10.447,7.085c9.416-3.149,16.252-12.064,16.252-22.504  C282.699,343.796,272.023,333.121,258.975,333.121z"/>
<path style="fill:#FFC477;" d="M339.622,84.562c-43.969-32.187-83.632,7.687-83.632,7.687c-0.39-0.39-39.831-39.694-83.613-7.644  c-18.911,14.196-56.151,51.877-46.703,123.824l19.797,111.877c1.495,8.45,9.545,23.613,9.545,23.613  c23.068,34.23,72.67,36.39,98.626,4.293l2.357-2.914l2.358,2.871c25.956,32.095,75.558,29.935,98.626-4.294  c0,0,8.05-15.164,9.545-23.613l19.797-111.877C395.772,136.439,358.533,98.757,339.622,84.562z"/>
<g>
	<path style="fill:#FFB655;" d="M172.378,84.626c-18.911,14.196-56.151,51.877-46.703,123.824l19.797,111.877   c1.495,8.45,9.545,23.613,9.545,23.613c15.502,23.002,42.981,31.497,67.219,24.872c-2.763-2.86-5.331-6.003-7.653-9.448   c0,0-8.975-16.906-10.642-26.328l-22.073-124.741c-9.56-72.807,23.761-114.143,45.764-132.994   c-0.146-0.049-0.302-0.113-0.456-0.173C212.181,70.252,192.75,69.714,172.378,84.626z"/>
	<path style="fill:#FFB655;" d="M275.598,210.244c-12.661-4.578-26.569-4.578-39.23,0c-77.931,28.175-91.3,81.154-93.486,95.519   l2.574,14.542c1.495,8.45,9.545,23.613,9.545,23.613c23.068,34.23,72.67,36.39,98.626,4.293l2.357-2.914l2.358,2.871   c25.956,32.095,75.558,29.935,98.626-4.294c0,0,8.05-15.164,9.545-23.613l2.606-14.727   C366.937,291.184,353.548,238.426,275.598,210.244z"/>
</g>
<path style="fill:#FFA733;" d="M214.582,359.385c0,0-8.975-16.906-10.642-26.328l-17.033-96.258  c-34.787,27.077-42.421,58.438-44.026,68.986l2.574,14.542c1.495,8.45,9.545,23.613,9.545,23.613  c15.501,23.001,42.979,31.497,67.216,24.873C219.462,365.958,216.899,362.822,214.582,359.385z"/>
<g>
	<path style="fill:#FFB655;" d="M321.021,119.994c-5.455-4.585-9.507-7.184-9.966-7.446c-3.762-2.141-5.074-6.927-2.933-10.688   c2.141-3.762,6.929-5.074,10.688-2.933c1.395,0.794,6.429,3.817,12.654,9.379c3.228,2.884,3.506,7.838,0.623,11.065   C330.538,121.105,326.356,124.48,321.021,119.994z"/>
	<path style="fill:#FFB655;" d="M347.886,172.844c-1.459-13.496-5.917-25.686-12.734-36.288c-2.341-3.64-1.286-8.49,2.354-10.829   c3.639-2.343,8.49-1.287,10.829,2.354c8.106,12.609,13.19,27.036,15.109,42.878c0.52,4.297-2.54,8.202-6.837,8.723   C356.288,179.72,348.704,180.419,347.886,172.844z"/>
</g>
<path style="fill:#FFF5CC;" d="M253.637,348.212l2.358-2.916v-36.507l-61.67,61.086C215.521,373.914,238.565,366.85,253.637,348.212  z"/>
<path style="fill:#FFC477;" d="M211.414,352.95l-17.088,16.926c9.236,1.76,18.823,1.41,27.948-1.087  c-2.777-2.871-5.359-6.029-7.693-9.49C214.582,359.301,213.197,356.687,211.414,352.95z"/>
<path style="fill:#FFF5CC;" d="M258.355,348.212l-2.358-2.916v-36.507l61.67,61.086C296.472,373.914,273.428,366.85,258.355,348.212  z"/>
<path style="fill:#5F4D37;" d="M299.887,283.226c-4.125-2.721-9.675-1.581-12.396,2.544l-7.283,11.046  c-0.6-0.088-47.823-0.087-48.425,0.002l-7.284-11.048c-2.721-4.125-8.269-5.263-12.396-2.544c-4.125,2.72-5.264,8.269-2.545,12.396  l13.88,21.053c6.034,13.333,16.426,28.423,32.561,28.423c16.155,0,26.553-15.128,32.584-28.473l13.848-21.002  C305.151,291.495,304.012,285.946,299.887,283.226z"/>
<g>
	<path style="fill:#3E3D42;" d="M233.995,315.351c-3.637,0-6.965,1.309-9.549,3.476c4.279,8.862,10.477,18.083,18.985,22.892   c3.32-2.727,5.438-6.864,5.438-11.496C248.867,322.009,242.209,315.351,233.995,315.351z"/>
	<path style="fill:#3E3D42;" d="M278.004,315.351c3.637,0,6.965,1.309,9.549,3.476c-4.279,8.862-10.477,18.083-18.985,22.892   c-3.32-2.727-5.438-6.864-5.438-11.496C263.132,322.009,269.79,315.351,278.004,315.351z"/>
	<path style="fill:#3E3D42;" d="M185.023,290.696c2.058,0,4.075,0.836,5.538,2.299c1.463,1.452,2.299,3.479,2.299,5.538   c0,2.058-0.836,4.086-2.299,5.538c-1.463,1.463-3.48,2.299-5.538,2.299c-2.069,0-4.086-0.836-5.548-2.299   c-1.452-1.452-2.288-3.479-2.288-5.538c0-2.058,0.836-4.086,2.288-5.538C180.938,291.532,182.954,290.696,185.023,290.696z"/>
	<path style="fill:#3E3D42;" d="M326.977,290.696c2.058,0,4.075,0.836,5.538,2.299c1.463,1.452,2.299,3.479,2.299,5.538   c0,2.058-0.836,4.086-2.299,5.538c-1.463,1.463-3.479,2.299-5.538,2.299c-2.069,0-4.086-0.836-5.548-2.299   c-1.452-1.452-2.288-3.479-2.288-5.538c0-2.058,0.836-4.086,2.288-5.538C322.891,291.532,324.908,290.696,326.977,290.696z"/>
	<path style="fill:#3E3D42;" d="M168.522,319.047c2.058,0,4.075,0.836,5.538,2.299c1.463,1.452,2.299,3.479,2.299,5.538   s-0.836,4.086-2.299,5.538c-1.463,1.463-3.48,2.299-5.538,2.299c-2.069,0-4.086-0.836-5.548-2.299   c-1.452-1.452-2.288-3.479-2.288-5.538s0.836-4.086,2.288-5.538C164.437,319.883,166.453,319.047,168.522,319.047z"/>
	<path style="fill:#3E3D42;" d="M201.524,319.047c2.058,0,4.075,0.836,5.538,2.299c1.463,1.452,2.299,3.479,2.299,5.538   s-0.836,4.086-2.299,5.538c-1.463,1.463-3.48,2.299-5.538,2.299c-2.069,0-4.086-0.836-5.548-2.299   c-1.452-1.452-2.288-3.479-2.288-5.538s0.836-4.086,2.288-5.538C197.439,319.883,199.455,319.047,201.524,319.047z"/>
	<path style="fill:#3E3D42;" d="M310.476,319.047c2.058,0,4.075,0.836,5.538,2.299c1.463,1.452,2.299,3.479,2.299,5.538   s-0.836,4.086-2.299,5.538c-1.463,1.463-3.479,2.299-5.538,2.299c-2.069,0-4.086-0.836-5.548-2.299   c-1.452-1.452-2.288-3.479-2.288-5.538s0.836-4.086,2.288-5.538C306.39,319.883,308.407,319.047,310.476,319.047z"/>
	<path style="fill:#3E3D42;" d="M343.478,319.047c2.058,0,4.075,0.836,5.538,2.299c1.463,1.452,2.299,3.479,2.299,5.538   s-0.836,4.086-2.299,5.538c-1.463,1.463-3.479,2.299-5.538,2.299c-2.069,0-4.086-0.836-5.548-2.299   c-1.452-1.452-2.288-3.479-2.288-5.538s0.836-4.086,2.288-5.538C339.393,319.883,341.409,319.047,343.478,319.047z"/>
</g>
<g>
	<circle style="fill:#663A00;" cx="322.424" cy="200.422" r="14.247"/>
	<circle style="fill:#663A00;" cx="189.576" cy="200.422" r="14.247"/>
</g>
<g>
</g>
<g>
</g>
<g>
</g>
<g>
</g>
<g>
</g>
<g>
</g>
<g>
</g>
<g>
</g>
<g>
</g>
<g>
</g>
<g>
</g>
<g>
</g>
<g>
</g>
<g>
</g>
<g>
</g>
</svg>
