<?xml version="1.0" encoding="iso-8859-1"?>
<!-- Generator: Adobe Illustrator 19.0.0, SVG Export Plug-In . SVG Version: 6.00 Build 0)  -->
<svg xmlns="http://www.w3.org/2000/svg" xmlns:xlink="http://www.w3.org/1999/xlink" version="1.1" id="Layer_1" x="0px" y="0px" viewBox="0 0 511.999 511.999" style="enable-background:new 0 0 511.999 511.999;" xml:space="preserve">
<path style="fill:#FF3501;" d="M388.02,176.203c0,0,23.989,37.288,42.749,74.602c4.71,9.368,18.552,7.693,20.866-2.535l8.381-37.041  l41.514-2.691c9.782-0.634,14.072-12.668,6.877-19.324c-16.93-15.662-46.11-36.242-83.86-38.006  C424.642,151.731,388.02,176.203,388.02,176.203z"/>
<path style="fill:#CD2A00;" d="M508.407,189.215c-16.93-15.662-46.11-36.242-83.86-38.006c0.058,0.319-13.475,9.501-24.084,16.645  l36.421,21.857l23.133,21.519l41.514-2.691C511.312,207.904,515.603,195.871,508.407,189.215z"/>
<path style="fill:#FF3501;" d="M153.618,73.529L185.52,36.47c13.921-16.171,35.309-23.819,56.332-20.168  c27.316,4.744,65.518,15.217,96.803,38.303c8.686,6.41,14.962,15.554,17.797,25.971c3.74,13.739,8.743,32.291,8.743,32.291  L153.618,73.529z"/>
<path style="fill:#CD2A00;" d="M275.58,24.226c-12.126-3.646-23.667-6.176-33.729-7.922c-21.024-3.651-42.411,3.997-56.332,20.168  L153.618,73.53l58,10.784l35.406-41.575C254.706,33.814,264.665,27.491,275.58,24.226z"/>
<path style="fill:#FF6D55;" d="M437.359,170.77c-1.965-3.692-4.218-7.657-6.805-11.869c-15.865-25.802-44.948-61.391-89.468-84.832  c-43.834-23.577-103.099-35.024-163.55-15.806c-43.806,13.458-88.237,43.574-118.254,88.608  c-0.819,1.774-8.633,19.882,11.863,23.608c-7.76,26.972,21.193,19.714,21.193,19.714c22.146-3.159,48.572-5.792,75.767-5.788  c35.852-1.343,74.192-1.49,117.99-0.515c37.877,1.243,79.74,3.302,135.48,13.331C434.591,199.562,444.176,183.582,437.359,170.77z"/>
<g>
	<path style="fill:#FF5023;" d="M436.884,189.71c3.189-5.307,3.891-12.52,0.475-18.94c-1.965-3.692-4.218-7.657-6.805-11.869   c-15.864-25.802-44.948-61.391-89.468-84.832c-43.834-23.577-103.099-35.024-163.55-15.806   c-43.806,13.458-88.237,43.573-118.254,88.608c-0.819,1.774-8.633,19.882,11.863,23.608   C71.147,170.479,230.015,20.156,436.884,189.71z"/>
	<path style="fill:#FF5023;" d="M348.919,163.661c-4.629-0.4-9.361-0.77-14.066-1.099c-4.344-0.305-7.619-4.073-7.315-8.416   s4.047-7.614,8.416-7.315c4.79,0.335,9.609,0.712,14.322,1.119c4.339,0.374,7.722,4.214,7.176,8.535   C356.402,164.796,349.15,163.681,348.919,163.661z"/>
	<path style="fill:#FF5023;" d="M310.293,161.149c-6.966-0.322-14.19-0.6-23.421-0.902l-0.293-0.008   c-4.509-0.1-8.976-0.189-13.372-0.266c-4.355-0.077-7.822-3.668-7.746-8.022c0.076-4.355,3.646-7.8,8.022-7.746   c4.42,0.078,8.912,0.167,13.491,0.269l0.375,0.01c9.344,0.306,16.632,0.587,23.672,0.912c4.35,0.201,7.955,3.909,7.513,8.24   C317.766,161.149,310.416,161.156,310.293,161.149z"/>
</g>
<path style="fill:#FF3501;" d="M199.526,156.311c-13.673-4.476-21.128-19.187-16.653-32.859  c4.474-13.673,19.187-21.128,32.859-16.653c13.673,4.474,41.282,25.784,36.807,39.456S213.199,160.786,199.526,156.311z"/>
<path style="fill:#CD2A00;" d="M207.411,134.686c-10.039-3.286-16.719-12.092-17.793-21.952c-3.003,2.868-5.363,6.495-6.745,10.718  c-4.476,13.673,2.981,28.384,16.653,32.859c13.673,4.476,48.538,3.617,53.014-10.056c1.246-3.808,0-8.208-2.737-12.671  C237.168,138.335,217.039,137.837,207.411,134.686z"/>
<circle style="fill:#FFFFFF;" cx="108.182" cy="137.104" r="21.581"/>
<path style="fill:#3E3D42;" d="M108.18,144.991c-2.071,0-4.1-0.841-5.572-2.313c-1.472-1.461-2.313-3.501-2.313-5.572  s0.841-4.111,2.313-5.572c1.472-1.472,3.501-2.313,5.572-2.313c2.082,0,4.111,0.841,5.583,2.313  c1.461,1.461,2.302,3.501,2.302,5.572s-0.841,4.111-2.302,5.572C112.29,144.15,110.262,144.991,108.18,144.991z"/>
<path style="fill:#0074E8;" d="M123.979,335.796c0,0-23.989-37.288-42.749-74.602c-4.71-9.368-18.552-7.693-20.866,2.535  l-8.381,37.041l-41.514,2.691c-9.782,0.634-14.072,12.668-6.877,19.324c16.93,15.662,46.11,36.242,83.86,38.006  C87.357,360.268,123.979,335.796,123.979,335.796z"/>
<g>
	<path style="fill:#2488FF;" d="M3.592,322.785c16.93,15.662,46.11,36.242,83.86,38.006c-0.058-0.319,13.475-9.501,24.084-16.645   l-36.421-21.857L51.982,300.77l-41.514,2.691C0.687,304.095-3.603,316.129,3.592,322.785z"/>
	<path style="fill:#2488FF;" d="M358.382,438.47l-31.903,37.059c-13.921,16.171-35.309,23.819-56.332,20.168   c-27.316-4.744-65.518-15.217-96.803-38.303c-8.686-6.41-14.962-15.555-17.797-25.971c-3.741-13.739-8.743-32.291-8.743-32.291   L358.382,438.47z"/>
</g>
<path style="fill:#0074E8;" d="M236.42,487.774c12.126,3.646,23.667,6.176,33.729,7.922c21.024,3.651,42.411-3.997,56.332-20.168  l31.903-37.058l-58-10.784l-35.406,41.575C257.294,478.186,247.335,484.508,236.42,487.774z"/>
<path style="fill:#57A4FF;" d="M74.64,341.229c1.965,3.692,4.218,7.657,6.805,11.869c15.865,25.802,44.948,61.391,89.468,84.832  c43.834,23.577,103.099,35.024,163.55,15.806c43.807-13.458,88.239-43.573,118.255-88.608c0.819-1.774,8.633-19.882-11.863-23.608  c7.76-26.972-21.193-19.714-21.193-19.714c-22.146,3.159-48.572,5.792-75.767,5.788c-35.852,1.343-74.192,1.49-117.99,0.515  c-37.877-1.243-79.74-3.302-135.48-13.331C77.408,312.437,67.823,328.418,74.64,341.229z"/>
<g>
	<path style="fill:#9BC9FF;" d="M75.115,322.29c-3.189,5.307-3.891,12.52-0.475,18.94c1.965,3.692,4.218,7.657,6.805,11.869   c15.864,25.802,44.948,61.391,89.468,84.832c43.834,23.577,103.099,35.024,163.55,15.806   c43.807-13.458,88.239-43.573,118.255-88.607c0.819-1.774,8.633-19.882-11.863-23.608   C440.853,341.521,281.984,491.844,75.115,322.29z"/>
	<path style="fill:#9BC9FF;" d="M176.046,365.169c-4.79-0.335-9.609-0.712-14.322-1.119c-4.339-0.374-7.553-4.196-7.176-8.535   c0.374-4.339,4.208-7.553,8.534-7.177c4.629,0.4,9.361,0.77,14.066,1.099c4.344,0.305,7.755,4.084,7.315,8.416   C183.72,365.169,176.234,365.182,176.046,365.169z"/>
	<path style="fill:#9BC9FF;" d="M238.518,367.794c-4.42-0.078-8.912-0.167-13.491-0.269l-0.375-0.011   c-9.344-0.306-16.632-0.587-23.672-0.911c-4.35-0.201-7.715-3.891-7.513-8.24c0.2-4.35,3.926-7.719,8.24-7.513   c6.966,0.322,14.19,0.6,23.421,0.902l0.293,0.008c4.509,0.1,8.976,0.189,13.372,0.266c4.355,0.077,8.043,3.678,7.746,8.022   C246.012,367.794,238.565,367.794,238.518,367.794z"/>
</g>
<path style="fill:#2488FF;" d="M312.473,355.688c13.673,4.476,21.128,19.187,16.653,32.859s-19.187,21.128-32.859,16.653  c-13.673-4.474-41.282-25.784-36.807-39.456C263.934,352.074,298.801,351.214,312.473,355.688z"/>
<path style="fill:#0074E8;" d="M304.588,377.313c10.039,3.286,16.719,12.092,17.793,21.952c3.003-2.868,5.363-6.495,6.745-10.718  c4.476-13.673-2.981-28.384-16.653-32.859c-13.673-4.476-48.538-3.617-53.014,10.056c-1.246,3.808,0,8.208,2.737,12.671  C274.831,373.664,294.96,374.162,304.588,377.313z"/>
<circle style="fill:#FFFFFF;" cx="403.817" cy="374.895" r="21.581"/>
<path style="fill:#3E3D42;" d="M403.819,367.008c2.071,0,4.1,0.841,5.572,2.313c1.472,1.461,2.313,3.501,2.313,5.572  c0,2.071-0.841,4.111-2.313,5.572c-1.472,1.472-3.501,2.313-5.572,2.313c-2.082,0-4.111-0.841-5.583-2.313  c-1.461-1.461-2.302-3.501-2.302-5.572c0-2.071,0.841-4.111,2.302-5.572C399.71,367.849,401.738,367.008,403.819,367.008z"/>
<g>
</g>
<g>
</g>
<g>
</g>
<g>
</g>
<g>
</g>
<g>
</g>
<g>
</g>
<g>
</g>
<g>
</g>
<g>
</g>
<g>
</g>
<g>
</g>
<g>
</g>
<g>
</g>
<g>
</g>
</svg>
