<?xml version="1.0" encoding="iso-8859-1"?>
<!-- Generator: Adobe Illustrator 19.0.0, SVG Export Plug-In . SVG Version: 6.00 Build 0)  -->
<svg xmlns="http://www.w3.org/2000/svg" xmlns:xlink="http://www.w3.org/1999/xlink" version="1.1" id="Layer_1" x="0px" y="0px" viewBox="0 0 512.001 512.001" style="enable-background:new 0 0 512.001 512.001;" xml:space="preserve">
<path style="fill:#FFDE55;" d="M104.858,406.723l6.936,46.951c0.678,4.587-0.856,9.224-4.135,12.503l-41.513,41.513  c-8.594,8.594-23.312,3.593-24.892-8.457l13.132-40.914L104.858,406.723z"/>
<path style="fill:#B39A7C;" d="M498.894,460.754H59.71c-4.329,0-7.837-3.509-7.837-7.837V12.481h15.673V445.08h431.347  L498.894,460.754L498.894,460.754z"/>
<g>
	<path style="fill:#957856;" d="M498.894,445.08h-70.46c4.904,5.401,9.98,10.622,15.21,15.673h55.25V445.08z"/>
	<path style="fill:#957856;" d="M67.547,84.124V12.481H51.873v56.521C56.924,74.202,62.148,79.248,67.547,84.124z"/>
</g>
<g>
	<path style="fill:#CC7400;" d="M326.261,235.254c20.437,12.712,43.19,29.558,73.475,59.843   c70.293,70.293,68.182,100.008,110.042,154.367c7.188,9.333-4.565,21.358-14.051,14.372c-19.299-14.214-41.292-34.074-61.671-61.04   c0,0-82.98-99.983-154.142-121.197C279.959,281.642,326.261,235.254,326.261,235.254z"/>
	<path style="fill:#CC7400;" d="M276.747,185.74c-12.712-20.437-29.558-43.19-59.843-73.475   C146.611,41.97,116.896,44.082,62.536,2.221c-9.333-7.188-21.358,4.565-14.372,14.051c14.214,19.299,34.074,41.292,61.04,61.671   c0,0,99.983,82.98,121.197,154.142C230.359,232.042,276.747,185.74,276.747,185.74z"/>
</g>
<g>
	<path style="fill:#AA6100;" d="M139.73,75.511c-26.883-20.317-46.702-42.237-60.907-61.493C73.612,10.475,68.21,6.59,62.537,2.221   C53.204-4.966,41.18,6.786,48.166,16.272c14.214,19.299,34.074,41.292,61.04,61.671c0,0,99.983,82.98,121.197,154.142   c-0.021-0.021,11.22-11.262,22.635-22.667C221.855,143.67,139.73,75.511,139.73,75.511z"/>
	<path style="fill:#AA6100;" d="M436.49,372.271c20.317,26.883,42.237,46.702,61.493,60.907c3.543,5.211,7.428,10.613,11.798,16.287   c7.187,9.333-4.565,21.358-14.051,14.372c-19.299-14.214-41.292-34.074-61.671-61.04c0,0-82.98-99.983-154.142-121.197   c0.021,0.021,11.262-11.22,22.667-22.635C368.331,290.146,436.49,372.271,436.49,372.271z"/>
</g>
<path style="fill:#5F4D37;" d="M332.589,257.525l-27.836,27.836c-8.133,8.133-21.442,8.133-29.576,0l-48.537-48.537  c-8.133-8.133-8.133-21.442,0-29.576l27.836-27.836c8.133-8.133,21.442-8.133,29.576,0l48.537,48.537  C340.723,236.082,340.723,249.392,332.589,257.525z"/>
<path style="fill:#554431;" d="M226.64,207.249c-8.133,8.133-8.133,21.442,0,29.576l48.537,48.537  c8.133,8.133,21.442,8.133,29.576,0l16.368-16.368l-77.966-78.26L226.64,207.249z"/>
<path style="fill:#FFE477;" d="M105.278,407.143l-46.951-6.936c-4.587-0.678-9.224,0.856-12.503,4.135L4.309,445.855  c-8.594,8.594-3.593,23.312,8.457,24.892l41.62-12.426L105.278,407.143z"/>
<path style="fill:#FFC477;" d="M67.65,458.321c-3.662,3.662-9.601,3.662-13.263,0c0,0-6.918-6.918-0.287-13.55l292.964-292.964  l13.55,13.55L67.65,458.321z"/>
<path style="fill:#FFE477;" d="M360.927,151.074c-8.329-8.329-21.96-8.33-30.288,0l-4.407,4.407c-8.329,8.329-8.329,21.96,0,30.288  s21.96,8.329,30.288,0l4.407-4.407C369.256,173.034,369.256,159.404,360.927,151.074z"/>
<path style="fill:#D8D7DA;" d="M413.952,84.919l-109.688,42.625c-8.402,3.265-8.691,15.048-0.46,18.72l42.823,19.11l19.11,42.823  c3.674,8.232,15.456,7.942,18.72-0.46l42.625-109.688C430.279,89.824,422.177,81.722,413.952,84.919z"/>
<path style="fill:#C6C5CA;" d="M413.952,84.919l-109.688,42.625c-8.402,3.265-8.69,15.048-0.46,18.72l42.823,19.11L424.8,87.201  C422.146,84.547,418.065,83.32,413.952,84.919z"/>
<g>
</g>
<g>
</g>
<g>
</g>
<g>
</g>
<g>
</g>
<g>
</g>
<g>
</g>
<g>
</g>
<g>
</g>
<g>
</g>
<g>
</g>
<g>
</g>
<g>
</g>
<g>
</g>
<g>
</g>
</svg>
