<?xml version="1.0" encoding="iso-8859-1"?>
<!-- Generator: Adobe Illustrator 19.0.0, SVG Export Plug-In . SVG Version: 6.00 Build 0)  -->
<svg xmlns="http://www.w3.org/2000/svg" xmlns:xlink="http://www.w3.org/1999/xlink" version="1.1" id="Layer_1" x="0px" y="0px" viewBox="0 0 512.001 512.001" style="enable-background:new 0 0 512.001 512.001;" xml:space="preserve">
<g>
	<path style="fill:#FFB655;" d="M109.26,90.656l24.592-46.192c2.919-5.483,11.182-3.53,11.384,2.678   c0.482,14.899-3.738,38.671-25.83,68.94C119.85,115.844,109.26,90.656,109.26,90.656z"/>
	<path style="fill:#FFB655;" d="M402.741,90.656L378.15,44.463c-2.919-5.483-11.182-3.53-11.384,2.678   c-0.481,14.899,3.738,38.671,25.83,68.94C392.152,115.844,402.741,90.656,402.741,90.656z"/>
</g>
<g>
	<path style="fill:#FFA733;" d="M141.079,74.904l-18.515-9.239L109.26,90.656c0,0,10.59,25.188,10.145,25.425   C130.754,100.531,137.379,86.702,141.079,74.904z"/>
	<path style="fill:#FFA733;" d="M370.922,74.904l18.515-9.239l13.304,24.991c0,0-10.59,25.188-10.145,25.425   C381.247,100.531,374.622,86.702,370.922,74.904z"/>
	<path style="fill:#FFA733;" d="M261.755,205.159L261.755,205.159c-3.803,15.335-19.461,24.769-34.795,20.966l-168.67-41.833   c-15.335-3.803-24.769-19.461-20.966-34.795l0,0c3.803-15.335,19.461-24.769,34.795-20.966l168.67,41.833   C256.123,174.167,265.558,189.825,261.755,205.159z"/>
</g>
<path style="fill:#FFB655;" d="M62.788,77.02c0,0,20.909-58.235,60.264-76.124c8.227-3.739,16.581,4.924,12.467,12.969  c-14.442,28.242-40.611,79.568-40.611,79.568L62.788,77.02z"/>
<path style="fill:#FFA733;" d="M91.166,49.749c-4.103-2.096-8.448-3.524-12.879-4.286C68.059,62.343,62.788,77.02,62.788,77.02  l32.12,16.414c0,0,7.618-14.942,16.901-33.136L91.166,49.749z"/>
<path style="fill:#FFC477;" d="M81.995,67.695c-12.704-6.491-28.261-1.05-34.123,11.956c-15.379,34.121-33.96,88.126-2.631,104.135  s64.207-30.691,82.849-63.143c7.105-12.371,2.401-28.166-10.303-34.657L81.995,67.695z"/>
<path style="fill:#FFB655;" d="M91.605,72.606l-9.61-4.911c-12.704-6.491-28.261-1.05-34.123,11.956  c-15.378,34.121-33.96,88.126-2.631,104.135c7.369,3.765,14.824,4.06,22.158,1.888C58.402,155.167,91.166,73.398,91.605,72.606z"/>
<path style="fill:#FFA733;" d="M250.247,205.159L250.247,205.159c3.803,15.335,19.461,24.769,34.795,20.966l168.67-41.833  c15.335-3.803,24.769-19.461,20.965-34.795l0,0c-3.803-15.335-19.461-24.769-34.795-20.966l-168.67,41.833  C255.878,174.167,246.444,189.825,250.247,205.159z"/>
<path style="fill:#FFB655;" d="M449.214,77.02c0,0-20.909-58.235-60.264-76.124c-8.227-3.739-16.581,4.924-12.467,12.969  c14.442,28.242,40.611,79.568,40.611,79.568L449.214,77.02z"/>
<path style="fill:#FFA733;" d="M420.836,49.749c4.103-2.096,8.448-3.524,12.879-4.286c10.227,16.881,15.499,31.557,15.499,31.557  l-32.12,16.414c0,0-7.618-14.942-16.901-33.136L420.836,49.749z"/>
<path style="fill:#FFC477;" d="M430.006,67.695c12.704-6.491,28.261-1.05,34.123,11.956c15.379,34.121,33.96,88.126,2.631,104.135  s-64.207-30.691-82.849-63.143c-7.105-12.371-2.401-28.166,10.303-34.657L430.006,67.695z"/>
<path style="fill:#FFB655;" d="M420.396,72.606l9.61-4.911c12.704-6.491,28.261-1.05,34.123,11.956  c15.378,34.121,33.96,88.126,2.631,104.135c-7.369,3.765-14.824,4.06-22.158,1.888C453.6,155.167,420.836,73.398,420.396,72.606z"/>
<path style="fill:#FFA733;" d="M420.621,415.914l-48.084-48.084c-6.698-6.698-17.659-6.698-24.357,0l0,0  c-6.698,6.698-6.698,17.659,0,24.357l48.084,48.084c6.698,6.698,17.659,6.698,24.357,0l0,0  C427.319,433.573,427.319,422.612,420.621,415.914z"/>
<path style="fill:#FFC477;" d="M255.323,396.97h104.58c9.472,0,17.222-7.75,17.222-17.222l0,0c0-9.472-7.75-17.222-17.222-17.222  h-104.58c-9.472,0-17.222,7.75-17.222,17.222l0,0C238.101,389.221,245.851,396.97,255.323,396.97z"/>
<path style="fill:#FFA733;" d="M489.882,288.747l-48.084-48.084c-6.698-6.698-17.659-6.698-24.357,0l0,0  c-6.698,6.698-6.698,17.659,0,24.357l48.084,48.084c6.698,6.698,17.659,6.698,24.357,0l0,0  C496.58,306.406,496.58,295.446,489.882,288.747z"/>
<path style="fill:#FFC477;" d="M324.584,269.804h104.58c9.472,0,17.222-7.75,17.222-17.222l0,0c0-9.472-7.75-17.222-17.222-17.222  h-104.58c-9.472,0-17.222,7.75-17.222,17.222l0,0C307.362,262.054,315.112,269.804,324.584,269.804z"/>
<path style="fill:#FFA733;" d="M456.422,352.226l-48.084-48.084c-6.698-6.698-17.659-6.698-24.357,0l0,0  c-6.698,6.698-6.698,17.659,0,24.357l48.084,48.084c6.698,6.698,17.659,6.698,24.357,0l0,0  C463.12,369.884,463.12,358.924,456.422,352.226z"/>
<path style="fill:#FFC477;" d="M291.124,333.282h104.58c9.472,0,17.222-7.75,17.222-17.222l0,0c0-9.472-7.75-17.222-17.222-17.222  h-104.58c-9.472,0-17.222,7.75-17.222,17.222l0,0C273.901,325.532,281.651,333.282,291.124,333.282z"/>
<g>
	<path style="fill:#FFB655;" d="M370.402,366.141c-2.913-2.256-6.551-3.615-10.498-3.615H255.323   c-9.472,0-17.222,7.75-17.222,17.222l0,0c0,9.472,7.75,17.222,17.222,17.222h93.132   C356.756,387.593,364.128,377.188,370.402,366.141z"/>
	<path style="fill:#FFB655;" d="M393.128,298.837H291.124c-9.472,0-17.222,7.75-17.222,17.222c0,9.472,7.75,17.222,17.222,17.222   h94.035C389.007,321.93,391.713,310.336,393.128,298.837z"/>
	<path style="fill:#FFB655;" d="M394.273,235.359h-69.689c-9.472,0-17.222,7.75-17.222,17.222l0,0   c0,9.472,7.75,17.222,17.222,17.222h69.689L394.273,235.359L394.273,235.359z"/>
</g>
<path style="fill:#FFA733;" d="M91.381,415.878l48.084-48.084c6.698-6.698,17.659-6.698,24.357,0l0,0  c6.698,6.698,6.698,17.659,0,24.357l-48.084,48.084c-6.698,6.698-17.659,6.698-24.357,0l0,0  C84.683,433.537,84.683,422.577,91.381,415.878z"/>
<path style="fill:#FFC477;" d="M256.679,396.935H152.097c-9.472,0-17.222-7.75-17.222-17.222l0,0c0-9.472,7.75-17.222,17.222-17.222  h104.58c9.472,0,17.222,7.75,17.222,17.222l0,0C273.901,389.185,266.151,396.935,256.679,396.935z"/>
<path style="fill:#FFA733;" d="M22.119,288.712l48.084-48.084c6.698-6.698,17.659-6.698,24.357,0l0,0  c6.698,6.698,6.698,17.659,0,24.357l-48.084,48.084c-6.698,6.698-17.659,6.698-24.357,0l0,0  C15.421,306.371,15.421,295.41,22.119,288.712z"/>
<path style="fill:#FFC477;" d="M187.417,269.768H82.837c-9.472,0-17.222-7.75-17.222-17.222l0,0c0-9.472,7.75-17.222,17.222-17.222  h104.58c9.472,0,17.222,7.75,17.222,17.222l0,0C204.639,262.018,196.889,269.768,187.417,269.768z"/>
<path style="fill:#FFA733;" d="M55.58,352.19l48.084-48.084c6.698-6.698,17.659-6.698,24.357,0l0,0  c6.698,6.698,6.698,17.659,0,24.357l-48.084,48.084c-6.698,6.698-17.659,6.698-24.357,0l0,0  C48.882,369.849,48.882,358.888,55.58,352.19z"/>
<path style="fill:#FFC477;" d="M220.877,333.247h-104.58c-9.472,0-17.222-7.75-17.222-17.222l0,0c0-9.472,7.75-17.222,17.222-17.222  h104.58c9.472,0,17.222,7.75,17.222,17.222l0,0C238.101,325.497,230.351,333.247,220.877,333.247z"/>
<g>
	<path style="fill:#FFB655;" d="M118.873,298.802h102.004c9.472,0,17.222,7.75,17.222,17.222c0,9.472-7.75,17.222-17.222,17.222   h-94.035C122.995,321.895,120.288,310.302,118.873,298.802z"/>
	<path style="fill:#FFB655;" d="M256.679,362.491h-102.01c1.412,11.5,4.116,23.093,7.962,34.445h94.047   c9.472,0,17.222-7.75,17.222-17.222C273.901,370.241,266.151,362.491,256.679,362.491z"/>
	<path style="fill:#FFB655;" d="M187.417,235.324h-69.689v34.445h69.689c9.472,0,17.222-7.75,17.222-17.222l0,0   C204.639,243.074,196.889,235.324,187.417,235.324z"/>
</g>
<path style="fill:#CC7400;" d="M388.239,368.675v37.567c0,29.519-24.015,53.534-53.534,53.534s-53.535-24.014-53.535-53.533v-37.568  h-52.223v37.567c0,58.166,47.591,105.757,105.757,105.757l0,0c58.166,0,105.757-47.591,105.757-105.757v-37.567H388.239z"/>
<g>
	<path style="fill:#AA6100;" d="M415.395,368.675v25.067v12.5c0,44.493-36.198,80.69-80.69,80.69s-80.691-36.197-80.691-80.689   v-12.501v-25.067h-25.067v37.567c0,58.166,47.591,105.757,105.757,105.757l0,0c58.166,0,105.757-47.591,105.757-105.757v-37.567   H415.395z"/>
	<path style="fill:#AA6100;" d="M281.17,406.243v-37.568h-52.223v37.567c0,18.528,4.835,35.978,13.295,51.163l47.534-22.109   C284.341,426.922,281.17,416.949,281.17,406.243z"/>
	<path style="fill:#AA6100;" d="M365.038,450.322c-8.629,5.957-19.078,9.456-30.333,9.456c-4.337,0-8.549-0.532-12.589-1.509   l-16.294,49.698c9.189,2.627,18.88,4.035,28.883,4.035l0,0c17.705,0,34.424-4.416,49.126-12.19L365.038,450.322z"/>
	<path style="fill:#AA6100;" d="M388.239,406.243c0,3.92-0.436,7.738-1.239,11.421l46.784,25.457   c4.313-11.496,6.678-23.923,6.678-36.878v-37.568h-52.223V406.243z"/>
</g>
<g>
	<path style="fill:#9A4C00;" d="M415.395,368.675v25.067v12.5c0,8.633-1.378,16.946-3.899,24.75l22.288,12.128   c4.313-11.496,6.678-23.923,6.678-36.878v-37.567H415.395z"/>
	<path style="fill:#9A4C00;" d="M313.638,484.126l-7.816,23.841c9.189,2.627,18.88,4.035,28.883,4.035l0,0   c17.705,0,34.424-4.416,49.126-12.19l-8.971-23.624c-11.835,6.821-25.541,10.746-40.155,10.746   C327.417,486.933,320.358,485.945,313.638,484.126z"/>
	<path style="fill:#9A4C00;" d="M254.014,393.742v-25.067h-25.067v37.567c0,18.528,4.835,35.978,13.295,51.163l22.761-10.587   c-6.972-11.93-10.989-25.789-10.989-40.576L254.014,393.742L254.014,393.742z"/>
	<path style="fill:#9A4C00;" d="M449.549,356.069c1.22-15.29-1.893-40.237-24.62-70.392c-3.173-4.209-9.799-2.564-10.767,2.617   c-1.972,10.557-8.134,25.754-25.127,43.381c-5.807,6.023-10.332,15.246-10.332,25.005c0,19.568,15.863,35.431,35.431,35.431   C446.829,392.113,449.553,356.274,449.549,356.069z"/>
</g>
<path style="fill:#663A00;" d="M424.929,285.679c-1.269-1.683-3.089-2.417-4.879-2.376c6.433,48.75-20.184,101.088-23.005,104.418  c5.068,2.796,10.892,4.392,17.09,4.392c32.695,0,35.419-35.839,35.416-36.043C450.769,340.779,447.657,315.832,424.929,285.679z"/>
<path style="fill:#5F4D37;" d="M256.001,68.563c-59.06,0-106.938,72.012-106.938,131.073v80.972  c0,59.06,47.878,131.073,106.938,131.073s106.938-72.012,106.938-131.073v-80.972C362.939,140.575,315.061,68.563,256.001,68.563z"/>
<path style="fill:#554431;" d="M200.674,275.81v-80.972c0-47.748,31.295-103.953,74.492-123.735  c-6.219-1.652-12.623-2.539-19.166-2.539c-59.06,0-106.938,72.012-106.938,131.073v80.972c0,59.06,47.878,131.073,106.938,131.073  c11.313,0,22.213-2.65,32.446-7.336C238.533,391.082,200.674,328.327,200.674,275.81z"/>
<path style="fill:#6A563D;" d="M256.001,68.563c-59.06,0-106.938,72.012-106.938,131.073v80.972c0,22.655,7.051,47.213,19.07,68.884  h175.737c12.019-21.672,19.07-46.229,19.07-68.884v-80.972C362.939,140.575,315.061,68.563,256.001,68.563z"/>
<path style="fill:#5F4D37;" d="M200.674,194.838c0-47.748,31.295-103.953,74.491-123.735c-6.219-1.652-12.623-2.539-19.166-2.539  c-59.06,0-106.938,72.012-106.938,131.073v80.972c0,22.655,7.051,47.213,19.07,68.884h54.383  c-13.7-22.795-21.841-49.337-21.841-73.682v-80.973H200.674z"/>
<path style="fill:#806749;" d="M256.001,68.563c-59.06,0-106.938,72.012-106.938,131.073v80.972c0,1.572,0.041,3.155,0.109,4.745  h213.66c0.067-1.59,0.109-3.172,0.109-4.745v-80.972C362.939,140.575,315.061,68.563,256.001,68.563z"/>
<path style="fill:#6A563D;" d="M200.674,194.838c0-47.748,31.295-103.953,74.492-123.735c-6.219-1.652-12.623-2.539-19.166-2.539  c-59.06,0-106.938,72.012-106.938,131.073v80.972c0,1.572,0.041,3.155,0.109,4.745h51.915c-0.266-3.209-0.41-6.394-0.41-9.542  v-80.973H200.674z"/>
<path style="fill:#957856;" d="M256.001,68.563c-59.06,0-106.938,72.012-106.938,131.073v9.636h213.877v-9.636  C362.939,140.575,315.061,68.563,256.001,68.563z"/>
<path style="fill:#806749;" d="M275.167,71.102c-6.219-1.652-12.623-2.539-19.166-2.539c-59.06,0-106.938,72.012-106.938,131.073  v9.636h51.612v-14.433C200.674,147.09,231.971,90.885,275.167,71.102z"/>
<circle style="fill:#D1E7F8;" cx="217.98" cy="125.681" r="26.498"/>
<path style="fill:#3E3D42;" d="M217.98,133.509c-2.058,0-4.073-0.836-5.536-2.298c-1.462-1.452-2.298-3.478-2.298-5.536  s0.836-4.084,2.298-5.536c1.462-1.462,3.478-2.298,5.536-2.298c2.068,0,4.084,0.836,5.546,2.298  c1.452,1.452,2.287,3.478,2.287,5.536s-0.836,4.084-2.287,5.536C222.064,132.673,220.048,133.509,217.98,133.509z"/>
<circle style="fill:#D1E7F8;" cx="291.145" cy="125.681" r="26.498"/>
<path style="fill:#3E3D42;" d="M291.149,133.509c-2.058,0-4.073-0.836-5.536-2.298c-1.462-1.452-2.298-3.478-2.298-5.536  s0.836-4.084,2.298-5.536c1.462-1.462,3.478-2.298,5.536-2.298c2.068,0,4.084,0.836,5.546,2.298  c1.452,1.452,2.287,3.478,2.287,5.536s-0.836,4.084-2.287,5.536C295.233,132.673,293.217,133.509,291.149,133.509z"/>
<g>
</g>
<g>
</g>
<g>
</g>
<g>
</g>
<g>
</g>
<g>
</g>
<g>
</g>
<g>
</g>
<g>
</g>
<g>
</g>
<g>
</g>
<g>
</g>
<g>
</g>
<g>
</g>
<g>
</g>
</svg>
