<?xml version="1.0" encoding="iso-8859-1"?>
<!-- Generator: Adobe Illustrator 19.0.0, SVG Export Plug-In . SVG Version: 6.00 Build 0)  -->
<svg xmlns="http://www.w3.org/2000/svg" xmlns:xlink="http://www.w3.org/1999/xlink" version="1.1" id="Layer_1" x="0px" y="0px" viewBox="0 0 512.001 512.001" style="enable-background:new 0 0 512.001 512.001;" xml:space="preserve">
<path style="fill:#9A4C00;" d="M262.506,358.225h-16.41c-34.047,0-61.903,27.857-61.903,61.903l0,0  c0,34.047,27.856,61.903,61.903,61.903h16.41c34.047,0,61.903-27.857,61.903-61.903l0,0  C324.409,386.082,296.553,358.225,262.506,358.225z"/>
<path style="fill:#663A00;" d="M243.133,420.502c0-26.772,17.228-49.708,41.143-58.291c-6.781-2.568-14.117-3.986-21.769-3.986  h-16.41c-34.047,0-61.903,27.856-61.903,61.903s27.856,61.903,61.903,61.903h16.41c7.275,0,14.263-1.281,20.76-3.613  C259.878,469.559,243.133,446.897,243.133,420.502z"/>
<path style="fill:#AA6100;" d="M391.125,164.125c0,0,50.202,4.444,72.092,76.041c4.039,13.21-5.087,26.741-18.844,27.984  c-23.638,2.137-58.924,0.368-80.719-23.802C364.43,243.801,391.125,164.125,391.125,164.125z"/>
<g>
	<path style="fill:#9A4C00;" d="M418.771,175.173c9.851,26.591,9.44,57.757-1.233,93.1c-19.005-1.713-39.417-7.881-53.884-23.925   c0.776-0.548,27.471-80.223,27.471-80.223S403.572,165.23,418.771,175.173z"/>
	<path style="fill:#9A4C00;" d="M432.472,231.628c-8.535-16.853-22.391-33.307-33.13-40.943c0,0-8.556,40.106-10.704,46.314   c7.15,3.784,24.709,5.224,36.677,5.773C431.194,243.04,435.132,236.877,432.472,231.628z"/>
</g>
<path style="fill:#663A00;" d="M425.824,220.156c-0.183,7.275-0.925,14.787-2.221,22.531c-11.873-0.605-28.145-2.082-34.962-5.689  c2.148-6.208,10.704-46.314,10.704-46.314C407.609,196.561,417.712,207.669,425.824,220.156z"/>
<path style="fill:#FFEB99;" d="M335.599,218.727c0,0,255.509-22.672,151.51-181.698c-8.728-13.345-29.466-6.415-28.323,9.491  c3.521,49.009-18.191,106.934-144.503,99.884L335.599,218.727z"/>
<g>
	<path style="fill:#FFE477;" d="M459.046,42.152c2.517-12.69,20.182-17.173,28.063-5.123   c103.999,159.026-151.51,181.698-151.51,181.698l-12.032-40.823C393.844,180.024,493.909,163.133,459.046,42.152z"/>
	<path style="fill:#FFE477;" d="M335.599,218.727l-21.316-72.324c34.776,1.94,61.609-1.051,82.184-7.419   c3.611,3.913,6.92,8.036,9.913,12.374c9.719,14.086,15.8,29.839,18.251,47.172C380.255,214.762,335.599,218.727,335.599,218.727z"/>
</g>
<path style="fill:#FFDA44;" d="M424.63,198.531c-44.376,16.231-89.033,20.197-89.033,20.197l-12.032-40.823  c29.033,0.876,63.141-1.503,90.729-13.115C419.487,175.259,422.931,186.514,424.63,198.531z"/>
<path style="fill:#AA6100;" d="M120.877,164.125c0,0-50.202,4.444-72.092,76.041c-4.039,13.21,5.087,26.741,18.844,27.984  c23.638,2.137,58.924,0.368,80.719-23.802C147.572,243.801,120.877,164.125,120.877,164.125z"/>
<g>
	<path style="fill:#9A4C00;" d="M93.231,175.173c-9.851,26.591-9.44,57.757,1.233,93.1c19.005-1.713,39.417-7.881,53.884-23.925   c-0.776-0.548-27.471-80.223-27.471-80.223S108.43,165.23,93.231,175.173z"/>
	<path style="fill:#9A4C00;" d="M79.529,231.628c8.535-16.853,22.391-33.307,33.13-40.943c0,0,8.556,40.106,10.704,46.314   c-7.15,3.784-24.709,5.224-36.677,5.773C80.807,243.04,76.87,236.877,79.529,231.628z"/>
</g>
<path style="fill:#663A00;" d="M86.178,220.156c0.183,7.275,0.925,14.787,2.221,22.531c11.873-0.605,28.145-2.082,34.962-5.689  c-2.148-6.208-10.704-46.314-10.704-46.314C104.392,196.561,94.289,207.669,86.178,220.156z"/>
<path style="fill:#FFEB99;" d="M176.402,218.727c0,0-255.509-22.672-151.51-181.698c8.728-13.345,29.466-6.415,28.323,9.491  c-3.521,49.009,18.191,106.934,144.503,99.884L176.402,218.727z"/>
<g>
	<path style="fill:#FFE477;" d="M52.955,42.152c-2.517-12.69-20.182-17.173-28.063-5.123   c-103.999,159.026,151.51,181.698,151.51,181.698l12.032-40.823C118.158,180.024,18.092,163.133,52.955,42.152z"/>
	<path style="fill:#FFE477;" d="M176.402,218.727l21.316-72.324c-34.776,1.94-61.609-1.051-82.184-7.419   c-3.611,3.913-6.92,8.036-9.913,12.374c-9.719,14.086-15.8,29.839-18.251,47.172C131.747,214.762,176.402,218.727,176.402,218.727z   "/>
</g>
<path style="fill:#FFDA44;" d="M87.371,198.531c44.376,16.231,89.033,20.197,89.033,20.197l12.032-40.823  c-29.032,0.876-63.141-1.503-90.728-13.115C92.514,175.259,89.07,186.514,87.371,198.531z"/>
<path style="fill:#FFCD00;" d="M323.567,472.469c-24.739,0-44.866-20.127-44.866-44.866c0-24.739,20.127-44.866,44.866-44.866  c24.739,0,44.866,20.127,44.866,44.866C368.433,452.343,348.306,472.469,323.567,472.469z M323.567,398.411  c-16.097,0-29.192,13.096-29.192,29.192s13.096,29.192,29.192,29.192c16.097,0,29.192-13.096,29.192-29.192  S339.664,398.411,323.567,398.411z"/>
<path style="fill:#CC7400;" d="M256.001,114.202c0,0-193.753-2.55-131.294,161.886c0,2.55,65.009,144.04,65.009,144.04h132.568  c0,0,65.009-141.491,65.009-144.04C449.754,111.654,256.001,114.202,256.001,114.202z"/>
<g>
	<path style="fill:#AA6100;" d="M255.863,114.201c-5.778-0.038-192.653-0.013-131.156,161.887c0,2.55,65.009,144.04,65.009,144.04   h69.005c-19.144-41.768-63.674-139.167-63.674-141.391C156.829,178.124,204.913,133.759,255.863,114.201z"/>
	<path style="fill:#AA6100;" d="M299.443,158.713c-13.836-3.33-29.848-5.322-42.851-5.329l-0.397,0.008l-0.791-0.008   c-4.912,0-10.635,0.309-16.468,0.893c-4.307,0.427-8.147-2.712-8.579-7.018s2.71-8.147,7.018-8.579   c6.341-0.634,12.605-0.971,18.112-0.971l0.631,0.006l0.396-0.006c6.81,0,24.982,0.562,46.597,5.765   c4.208,1.012,6.858,5.26,5.785,9.453C306.853,160.915,300.06,158.861,299.443,158.713z"/>
	<path style="fill:#AA6100;" d="M334.411,172.199c-3.365-2.011-7.091-3.911-11.076-5.648c-3.967-1.729-5.784-6.347-4.054-10.315   c1.729-3.967,6.346-5.782,10.315-4.054c4.596,2.003,8.922,4.211,12.859,6.565c3.715,2.22,5.071,7.123,2.704,10.748   C340.98,175.892,335.671,172.954,334.411,172.199z"/>
	<path style="fill:#AA6100;" d="M278.52,330.9h-48.438c-34.353,0-62.46,28.107-62.46,62.46l0,0c0,34.353,28.107,62.46,62.46,62.46   h48.438c34.353,0,62.46-28.107,62.46-62.46l0,0C340.98,359.007,312.873,330.9,278.52,330.9z"/>
</g>
<path style="fill:#9A4C00;" d="M228.634,393.36c0-24.646,10.654-46.919,27.576-62.46h-26.127c-34.353,0-62.46,28.107-62.46,62.46  s28.107,62.46,62.46,62.46h26.127C239.288,440.279,228.634,418.006,228.634,393.36z"/>
<path style="fill:#2D2D30;" d="M232.232,379.357c10.519,6.185,14.034,19.726,7.849,30.245s-19.726,14.034-30.245,7.849  s-22.092-24.463-15.908-34.982C200.113,371.95,221.712,373.173,232.232,379.357z"/>
<path style="fill:#1D1D1F;" d="M232.232,379.357c-10.519-6.184-32.119-7.407-38.303,3.112c-1.472,2.504-1.929,5.449-1.643,8.564  c8.861-1.877,20.115,0.043,26.842,3.997c8.446,4.965,12.362,14.672,10.382,23.752c4.277-1.775,8.043-4.881,10.57-9.18  C246.265,399.082,242.751,385.541,232.232,379.357z"/>
<g>
	<path style="fill:#2D2D30;" d="M276.37,379.357c-10.519,6.185-14.034,19.726-7.849,30.245c6.185,10.519,19.726,14.034,30.245,7.849   c10.519-6.185,22.092-24.463,15.908-34.982C308.489,371.95,286.89,373.173,276.37,379.357z"/>
	<circle style="fill:#2D2D30;" cx="175.052" cy="256.001" r="18.271"/>
	<circle style="fill:#2D2D30;" cx="336.938" cy="256.001" r="18.271"/>
</g>
<path style="fill:#1D1D1F;" d="M276.37,379.357c10.519-6.184,32.119-7.407,38.303,3.112c1.472,2.504,1.929,5.449,1.643,8.564  c-8.861-1.877-20.115,0.043-26.842,3.997c-8.446,4.965-12.362,14.672-10.382,23.752c-4.277-1.775-8.043-4.881-10.57-9.18  C262.337,399.082,265.851,385.541,276.37,379.357z"/>
<path style="fill:#FFCD00;" d="M294.375,427.604c0-12.632,8.066-23.412,19.317-27.469c2.691-5.797,3.704-11.862,1.531-16.607  c-20.763,3.924-36.521,22.188-36.521,44.076c0,24.739,20.127,44.866,44.866,44.866v-15.673  C307.47,456.796,294.375,443.7,294.375,427.604z"/>
<g>
</g>
<g>
</g>
<g>
</g>
<g>
</g>
<g>
</g>
<g>
</g>
<g>
</g>
<g>
</g>
<g>
</g>
<g>
</g>
<g>
</g>
<g>
</g>
<g>
</g>
<g>
</g>
<g>
</g>
</svg>
