<?xml version="1.0" encoding="iso-8859-1"?>
<!-- Generator: Adobe Illustrator 19.0.0, SVG Export Plug-In . SVG Version: 6.00 Build 0)  -->
<svg xmlns="http://www.w3.org/2000/svg" xmlns:xlink="http://www.w3.org/1999/xlink" version="1.1" id="Layer_1" x="0px" y="0px" viewBox="0 0 511.999 511.999" style="enable-background:new 0 0 511.999 511.999;" xml:space="preserve">
<path style="fill:#FF5023;" d="M42.481,211.86c0,0,0,99.519,0.523,182.536c0.273,43.174,37.479,77.541,78.755,90.207  c55.997,17.184,148.81,27.992,266.678-22.088L257.46,137.427L42.481,211.86z"/>
<path style="fill:#FF3501;" d="M388.437,462.514L257.459,137.426l-128.903,44.631l30.966,215.003c0,0,11.38,58.609,71.464,101.745  C276.122,497.501,329.102,487.724,388.437,462.514z"/>
<circle style="fill:#FFC477;" cx="42.481" cy="254.338" r="42.481"/>
<path style="fill:#FFB655;" d="M42.481,274.151c-10.923,0-19.811-8.887-19.811-19.81c0-10.923,8.888-19.81,19.811-19.81  s19.81,8.887,19.81,19.81C62.293,265.264,53.406,274.151,42.481,274.151z"/>
<path style="fill:#FFDAAA;" d="M173.965,53.674L173.965,53.674c-72.316,0-131.484,59.167-131.484,131.484V294.17  c0,72.316,59.167,131.484,131.484,131.484l0,0c72.316,0,131.484-59.167,131.484-131.484V185.158  C305.449,112.842,246.281,53.674,173.965,53.674z"/>
<path style="fill:#FFC477;" d="M305.449,185.157c0-72.316-59.167-131.484-131.484-131.484l0,0c-27.431,0-52.965,8.519-74.1,23.034  c-1.168,4.936-2.098,10.032-2.768,15.284c-5.326,41.743,8.822,66.475,32.487,102.806c5.217,10.489,6.948,19.013,9.119,29.707  c3.809,18.764,8.125,40.033,30.704,69.851c22.58,29.82,41.925,39.656,58.91,48.493c28.727,14.946,43.34,36.525,44.344,37.949  c20.383-23.179,32.788-53.523,32.788-86.626V185.157H305.449z"/>
<path style="fill:#FFB655;" d="M173.965,246.247c-11.638,0-21.159,9.521-21.159,21.159v21.159c0,11.638,9.522,21.159,21.159,21.159  s21.159-9.522,21.159-21.159v-21.159C195.124,255.768,185.603,246.247,173.965,246.247z"/>
<path style="fill:#FFA733;" d="M169.407,294.357c4.007,5.291,7.908,9.945,11.714,14.088c8.139-2.953,14.004-10.754,14.004-19.88  v-21.159c0-11.638-9.522-21.159-21.159-21.159c-11.638,0-21.159,9.521-21.159,21.159v0.837  C156.868,276.21,162.206,284.847,169.407,294.357z"/>
<circle style="fill:#663A00;" cx="109.819" cy="234.527" r="17.607"/>
<path style="fill:#FF5023;" d="M141.685,340.795c0,0-10.784,49.538,32.28,49.538s32.28-49.538,32.28-49.538H141.685z"/>
<path style="fill:#FF3501;" d="M173.965,332.396c0,0-19.587-7.888-32.28,11.422c0.742,0.444,32.28,19.31,32.28,19.31  s31.538-18.866,32.28-19.31C193.552,324.508,173.965,332.396,173.965,332.396z"/>
<g>
	<path style="fill:#CD2A00;" d="M141.683,340.795c0,0-10.626,48.843,31.4,49.521c-13.158-18.471-8.069-38.524-3.424-49.521H141.683z   "/>
	<path style="fill:#CD2A00;" d="M141.685,343.818c0.483,0.288,13.982,8.363,23.369,13.979c1.732-14.536,8.911-25.4,8.911-25.4   S154.378,324.508,141.685,343.818z"/>
</g>
<path style="fill:#554431;" d="M173.965,370.963c-1.393,0-2.785-0.37-4.023-1.111l-35.967-21.514  c-3.715-2.221-4.924-7.034-2.702-10.749c2.221-3.715,7.033-4.925,10.749-2.702l31.945,19.109l31.944-19.109  c3.716-2.221,8.527-1.01,10.749,2.702c2.221,3.715,1.011,8.526-2.702,10.749l-35.966,21.514  C176.75,370.593,175.358,370.963,173.965,370.963z"/>
<path style="fill:#FF5023;" d="M173.965,53.674L173.965,53.674c-72.316,0-131.484,59.167-131.484,131.484v26.701  c24.705-4.176,34.73-39.563,49.877-47.375c35.043-18.073,52.38,7.919,67.18-19.623L184,54.055  C180.688,53.803,177.341,53.674,173.965,53.674z"/>
<path style="fill:#FF3501;" d="M173.965,53.674L173.965,53.674c-27.431,0-52.965,8.519-74.1,23.034  c-1.168,4.936-2.098,10.032-2.768,15.284c-3.408,26.714,1.168,46.461,11.101,66.74c24.805-5.242,38.961,9.168,51.34-13.869  L184,54.056C180.688,53.803,177.341,53.674,173.965,53.674z"/>
<path style="fill:#FF6243;" d="M480.915,291.943c-37.977-50.153-62.075-31.905-100.052-82.058  c-37.839-49.971-18.43-64.09-51.455-118.017c-26.344-41.003-52.783-71.801-99.741-77.792c-57.132-7.289-99.37,24.089-106.658,81.221  c-4.215,33.038,6.474,51.542,29.235,86.429c18.027,35.044,6.029,54.658,37.987,96.862c37.977,50.153,62.075,31.905,100.052,82.058  c19.831,26.189,22.736,43.679,26.391,61.554c6.647,32.501,40.554,51.562,71.762,40.314l87.539-31.55  c26.469-9.539,41.451-37.727,34.2-64.912C504.09,343.234,505.326,324.179,480.915,291.943z"/>
<g>
	<path style="fill:#FF5023;" d="M398.491,401.828c-4.03-19.706-7.232-38.985-29.093-67.857   c-41.865-55.288-68.43-35.171-110.296-90.46c-35.23-46.525-22.005-68.147-41.876-106.779   c-25.092-38.459-36.876-58.857-32.229-95.277c1.188-9.313,3.225-18,6.027-26.025c-36.909,8.11-62.492,36.591-68.012,79.866   c-4.215,33.038,6.474,51.542,29.235,86.429c18.027,35.044,6.029,54.658,37.987,96.862c37.977,50.153,62.075,31.905,100.052,82.058   c19.831,26.189,22.736,43.679,26.391,61.554c6.647,32.5,40.554,51.562,71.762,40.314l46.845-16.882   C417.187,438.475,402.752,422.667,398.491,401.828z"/>
	<path style="fill:#FF5023;" d="M374.171,260.396c-4.525-3.442-8.467-7.928-12.517-12.359c-2.919-3.195-2.697-8.152,0.498-11.072   s8.152-2.697,11.072,0.497c3.679,4.027,7.496,7.795,11.341,11.201c3.24,2.87,3.539,7.823,0.67,11.062   C383.684,261.474,379.037,264.097,374.171,260.396z"/>
	<path style="fill:#FF5023;" d="M449.677,315.597c-13.599-17.96-22.788-22.683-36.696-29.831   c-5.362-2.755-11.434-5.878-17.863-9.837c-3.685-2.271-4.833-7.098-2.562-10.783c2.271-3.685,7.098-4.833,10.782-2.561   c5.911,3.641,11.448,6.487,16.803,9.239c14.683,7.546,26.276,13.506,42.031,34.311c2.612,3.45,1.875,8.289-1.517,10.979   C456.359,320.522,451.219,317.633,449.677,315.597z"/>
</g>
<g>
</g>
<g>
</g>
<g>
</g>
<g>
</g>
<g>
</g>
<g>
</g>
<g>
</g>
<g>
</g>
<g>
</g>
<g>
</g>
<g>
</g>
<g>
</g>
<g>
</g>
<g>
</g>
<g>
</g>
</svg>
