<?xml version="1.0" encoding="iso-8859-1"?>
<!-- Generator: Adobe Illustrator 19.0.0, SVG Export Plug-In . SVG Version: 6.00 Build 0)  -->
<svg version="1.1" id="Capa_1" xmlns="http://www.w3.org/2000/svg" xmlns:xlink="http://www.w3.org/1999/xlink" x="0px" y="0px"
	 viewBox="0 0 512 512" style="enable-background:new 0 0 512 512;" xml:space="preserve">
<path style="fill:#713708;" d="M512,271H402l6-111h9c52.383,0,95,42.617,95,95V271z"/>
<path style="fill:#994C0F;" d="M110,271H0v-16c0-52.383,42.617-95,95-95h9L110,271z"/>
<path style="fill:#BF6015;" d="M288.402,512h-64.804c-25.16,0-49.51-9.048-68.564-25.477
	c-19.055-16.429-31.588-39.183-35.292-64.068L81.164,163.208l29.673-4.416h290.327l29.673,4.416l-38.579,259.247
	c-3.703,24.885-16.236,47.639-35.292,64.068C337.912,502.952,313.562,512,288.402,512z"/>
<g>
	<path style="fill:#994C0F;" d="M401.164,158.792H256V512h32.402c25.16,0,49.51-9.048,68.564-25.477
		c19.055-16.429,31.588-39.183,35.292-64.068l38.579-259.247L401.164,158.792z"/>
	<circle style="fill:#994C0F;" cx="216" cy="456" r="20"/>
</g>
<circle style="fill:#713708;" cx="296" cy="456" r="20"/>
<circle style="fill:#994C0F;" cx="191" cy="246" r="20"/>
<circle style="fill:#713708;" cx="321" cy="246" r="20"/>
<path style="fill:#EBE5DD;" d="M366,186V96h20c52.935,0,96-43.065,96-96h30v40C512,120.505,446.505,186,366,186z"/>
<path style="fill:#F7F4F0;" d="M146,186C65.495,186,0,120.505,0,40V0h30c0,52.935,43.065,96,96,96h20V186z"/>
<polygon style="fill:#994C0F;" points="381,196 381,86 131,86 131,196 241,196 241,376 181,376 181,406 331,406 331,376 271,376 
	271,196 "/>
<polygon style="fill:#713708;" points="381,196 381,86 256,86 256,406 331,406 331,376 271,376 271,196 "/>
<g>
</g>
<g>
</g>
<g>
</g>
<g>
</g>
<g>
</g>
<g>
</g>
<g>
</g>
<g>
</g>
<g>
</g>
<g>
</g>
<g>
</g>
<g>
</g>
<g>
</g>
<g>
</g>
<g>
</g>
</svg>
