<?xml version="1.0" encoding="iso-8859-1"?>
<!-- Generator: Adobe Illustrator 19.0.0, SVG Export Plug-In . SVG Version: 6.00 Build 0)  -->
<svg version="1.1" id="Capa_1" xmlns="http://www.w3.org/2000/svg" xmlns:xlink="http://www.w3.org/1999/xlink" x="0px" y="0px"
	 viewBox="0 0 512.001 512.001" style="enable-background:new 0 0 512.001 512.001;" xml:space="preserve">
<path style="fill:#FD4B2D;" d="M149.462,89.274l-45.978,45.978l21.222,21.222l56.565-56.565
	C171.426,90.063,167.411,89.274,149.462,89.274z"/>
<path style="fill:#FFEA84;" d="M324.421,162.858c-53.357,0-97.966,38.167-107.955,88.636c-2.91-3.822-3.974-8.673-2.918-13.376
	l23.07-102.856c5.014-22.352-0.322-45.428-14.638-63.312c-5.694-7.113-12.504-13.014-20.079-17.549
	c17.557,8.156-12.062-6.312-8.883-4.535c-9.216-3.952-19.253-6.055-29.612-6.055h-4.053c-12.504,0-22.894,9.224-24.724,21.226
	L108.234,93.83h36.672c17.949,0,23.323-0.571,33.169,9.274c0.899,1.313,1.681,2.747,2.323,4.298
	c3.52,8.498,1.739,17.455-4.766,23.959l-70.266,70.266c-15.303,15.302-24.997,35.58-27.298,57.1
	c-2.301,21.519,2.888,43.389,14.61,61.58l124.188,161.683H173.36v30.012h120.049v-30.012h-29.841l-11.964-56.827
	c-2.39-11.353,0.432-23.03,7.741-32.039c7.311-9.009,18.155-14.176,29.757-14.176c21.13,0,38.321,17.191,38.321,38.321v32.708
	h23.639c0,0,83.405-81.033,83.405-177.072C434.466,212.224,385.1,162.858,324.421,162.858z"/>
<path style="fill:#FFDC40;" d="M324.421,162.858c-53.357,0-97.966,38.167-107.955,88.636l16.918,230.494V512h60.024v-30.012h-29.841
	l-11.964-56.827c-2.39-11.353,0.432-23.03,7.741-32.039c7.311-9.009,18.155-14.176,29.757-14.176
	c21.13,0,38.321,17.191,38.321,38.321v32.708h23.639c0,0,83.405-81.033,83.405-177.072
	C434.466,212.224,385.1,162.858,324.421,162.858z"/>
<path style="fill:#FD4B2D;" d="M301.079,66.819h-42.886c-26.634,0-52.403-7.839-74.525-22.671l-28.668-19.221L171.712,0
	l28.668,19.221c17.16,11.505,37.151,17.587,57.812,17.587h42.886V66.819z"/>
<path style="fill:#E8130F;" d="M258.192,36.807c-1.605,0-3.204-0.05-4.8-0.123V66.73c1.597,0.057,3.196,0.088,4.8,0.088h42.886
	V36.806L258.192,36.807L258.192,36.807z"/>
<g>
	<polygon style="fill:#FFAB15;" points="134.63,65.036 144.906,93.83 108.234,93.83 	"/>
	<rect x="173.361" y="481.986" style="fill:#FFAB15;" width="120.049" height="30.012"/>
</g>
<rect x="233.385" y="481.986" style="fill:#FF9400;" width="60.024" height="30.012"/>
<g>
</g>
<g>
</g>
<g>
</g>
<g>
</g>
<g>
</g>
<g>
</g>
<g>
</g>
<g>
</g>
<g>
</g>
<g>
</g>
<g>
</g>
<g>
</g>
<g>
</g>
<g>
</g>
<g>
</g>
</svg>
