<?xml version="1.0" encoding="iso-8859-1"?>
<!-- Generator: Adobe Illustrator 19.0.0, SVG Export Plug-In . SVG Version: 6.00 Build 0)  -->
<svg version="1.1" id="Capa_1" xmlns="http://www.w3.org/2000/svg" xmlns:xlink="http://www.w3.org/1999/xlink" x="0px" y="0px"
	 viewBox="0 0 512 512" style="enable-background:new 0 0 512 512;" xml:space="preserve">
<path style="fill:#FFDC40;" d="M456.93,212.157c-8.81-38.66-28.878-73.405-58.038-100.48l-67.97-40.939
	C310.402,63.613,288.745,60,266.552,60h-21.106c-22.192,0-43.849,3.612-64.368,10.737l-68.887,41.795
	c-28.828,27.111-48.628,61.774-57.262,100.24c-9.063,40.378-4.939,82.053,11.924,120.521l42.923,97.91
	C131.293,480.285,179.825,512,233.417,512h45.164c53.592,0,102.124-31.715,123.642-80.797l42.922-97.91
	C462.099,294.618,466.175,252.73,456.93,212.157z"/>
<path style="fill:#FFAB15;" d="M456.93,212.157c-8.81-38.66-28.878-73.405-58.038-100.48l-67.97-40.939
	C310.402,63.613,288.745,60,266.552,60h-10.553v452h22.582c53.592,0,102.124-31.715,123.642-80.797l42.922-97.91
	C462.099,294.618,466.175,252.73,456.93,212.157z"/>
<path style="fill:#FF6849;" d="M255.999,472c-33.084,0-60-26.916-60-60c0,0,43.458-10.5,60-10.5s60,10.5,60,10.5
	C315.999,445.084,289.083,472,255.999,472z"/>
<path style="fill:#FD4B2D;" d="M256,401.5V472c33.083,0,59.999-26.917,59.999-60C315.999,412,272.543,401.5,256,401.5z"/>
<path style="fill:#FFAB15;" d="M330.999,367c0,16.542-13.458,30-30,30s-30-13.458-30-30v-36h-30v36c0,16.542-13.458,30-30,30
	s-30-13.458-30-30h-30c0,33.084,26.916,60,60,60c17.908,0,33.997-7.896,45-20.377c11.003,12.481,27.092,20.377,45,20.377
	c33.084,0,60-26.916,60-60H330.999z"/>
<circle style="fill:#994C0F;" cx="186" cy="241" r="20"/>
<circle style="fill:#713708;" cx="326" cy="241" r="20"/>
<path style="fill:#FFDC40;" d="M345.999,150h-35V0h130v55C440.999,107.383,398.382,150,345.999,150z"/>
<path style="fill:#FFEA84;" d="M200.999,150h-35c-52.383,0-95-42.617-95-95V0h130V150z"/>
<path style="fill:#FF9400;" d="M330.999,367c0,16.542-13.458,30-30,30s-30-13.458-30-30v-36h-15v75.623
	c11.003,12.481,27.092,20.377,45,20.377c33.084,0,60-26.916,60-60H330.999z"/>
<rect x="211" y="316" style="fill:#994C0F;" width="90" height="30"/>
<rect x="256" y="316" style="fill:#713708;" width="44.999" height="30"/>
<g>
</g>
<g>
</g>
<g>
</g>
<g>
</g>
<g>
</g>
<g>
</g>
<g>
</g>
<g>
</g>
<g>
</g>
<g>
</g>
<g>
</g>
<g>
</g>
<g>
</g>
<g>
</g>
<g>
</g>
</svg>
