<?xml version="1.0" encoding="iso-8859-1"?>
<!-- Generator: Adobe Illustrator 19.0.0, SVG Export Plug-In . SVG Version: 6.00 Build 0)  -->
<svg version="1.1" id="Capa_1" xmlns="http://www.w3.org/2000/svg" xmlns:xlink="http://www.w3.org/1999/xlink" x="0px" y="0px"
	 viewBox="0 0 512 512" style="enable-background:new 0 0 512 512;" xml:space="preserve">
<path style="fill:#FF6849;" d="M456,422v70c-33.335,0-33.335,20-66.67,20s-33.335-20-66.67-20c-33.334,0-33.334,20-66.667,20
	s-33.333-20-66.665-20c-33.331,0-33.331,20-66.662,20C89.332,512,89.332,492,56,492v-70"/>
<path style="fill:#FD4B2D;" d="M256,422v90c33.326-0.003,33.328-20,66.659-20c33.335,0,33.335,20,66.67,20s33.335-20,66.67-20v-70
	H256z"/>
<path style="fill:#E8130F;" d="M437,0v66c0,5.523-4.477,10-10,10H85c-5.523,0-10-4.477-10-10V0H15v76c0,28.189,22.811,51,51,51h50
	v75h280v-75h50c28.189,0,51-22.811,51-51V0H437z"/>
<path style="fill:#A10101;" d="M437,0v66c0,5.523-4.477,10-10,10H256v126h140v-75h50c28.189,0,51-22.811,51-51V0H437z"/>
<path style="fill:#F7F4F0;" d="M136,127H66v30c0,33.137,26.863,60,60,60h22.5l42.198-54.697C181.283,141.485,160.333,127,136,127z"
	/>
<path style="fill:#EBE5DD;" d="M376,127c-24.333,0-45.283,14.485-54.697,35.303L364.667,217H386c33.137,0,60-26.863,60-60v-30H376z"
	/>
<rect x="101" y="172" style="fill:#994C0F;" width="30" height="45"/>
<rect x="381" y="172" style="fill:#713708;" width="30" height="45"/>
<path style="fill:#FFDC40;" d="M437,202H75c-41.355,0-75,33.645-75,75v80c0,41.355,33.645,75,75,75h362c41.355,0,75-33.645,75-75
	v-80C512,235.645,478.355,202,437,202z"/>
<path style="fill:#E8130F;" d="M437,232h-6v35h-30v-35H111v35H81v-35h-6c-24.813,0-45,20.187-45,45v80c0,24.813,20.187,45,45,45h6
	v-35h30v35h290v-35h30v35h6c24.813,0,45-20.187,45-45v-80C482,252.187,461.813,232,437,232z"/>
<path style="fill:#FFAB15;" d="M437,202H256v230h181c41.355,0,75-33.645,75-75v-80C512,235.645,478.355,202,437,202z"/>
<path style="fill:#A10101;" d="M437,232h-6v35h-30v-35H256v170h145v-35h30v35h6c24.813,0,45-20.187,45-45v-80
	C482,252.187,461.813,232,437,232z"/>
<path style="fill:#FF6849;" d="M337.716,262H286c-11.515,0-22.033-4.347-30-11.486C248.033,257.653,237.515,262,226,262h-51.716
	C150.417,262,131,242.583,131,218.716c0-11.562,4.502-22.431,12.678-30.606L256,75.787L368.322,188.11
	c8.175,8.175,12.678,19.045,12.678,30.606C381,242.583,361.583,262,337.716,262z"/>
<path style="fill:#FD4B2D;" d="M368.322,188.109L256,75.787v174.727c7.967,7.139,18.485,11.486,30,11.486h51.716
	C361.583,262,381,242.583,381,218.716C381,207.154,376.498,196.285,368.322,188.109z"/>
<rect x="81" y="232" style="fill:#FFEA84;" width="30" height="45"/>
<rect x="401" y="232" style="fill:#FFDC40;" width="30" height="45"/>
<rect x="81" y="357" style="fill:#FFEA84;" width="30" height="45"/>
<rect x="401" y="357" style="fill:#FFDC40;" width="30" height="45"/>
<rect x="291" y="202" style="fill:#A10101;" width="30" height="30"/>
<rect x="191" y="202" style="fill:#E8130F;" width="30" height="30"/>
<path style="fill:#FF6849;" d="M371,402H141c0-63.411,51.589-115,115-115S371,338.589,371,402z"/>
<path style="fill:#FD4B2D;" d="M256,402h115c0-63.411-51.589-115-115-115V402z"/>
<g>
</g>
<g>
</g>
<g>
</g>
<g>
</g>
<g>
</g>
<g>
</g>
<g>
</g>
<g>
</g>
<g>
</g>
<g>
</g>
<g>
</g>
<g>
</g>
<g>
</g>
<g>
</g>
<g>
</g>
</svg>
