<?xml version="1.0" encoding="iso-8859-1"?>
<!-- Generator: Adobe Illustrator 19.0.0, SVG Export Plug-In . SVG Version: 6.00 Build 0)  -->
<svg version="1.1" id="Capa_1" xmlns="http://www.w3.org/2000/svg" xmlns:xlink="http://www.w3.org/1999/xlink" x="0px" y="0px"
	 viewBox="0 0 512 512" style="enable-background:new 0 0 512 512;" xml:space="preserve">
<path style="fill:#FFAB15;" d="M417,242V131h95v16C512,199.383,469.383,242,417,242z"/>
<path style="fill:#FFDC40;" d="M95,242c-52.383,0-95-42.617-95-95v-16h95V242z"/>
<path style="fill:#FFEA84;" d="M80,131v115c0,40.012,31.499,72.807,71,74.895V452c0,33.084,26.916,60,60,60
	c17.908,0,33.997-7.896,45-20.377C267.003,504.104,283.092,512,301,512c33.084,0,60-26.916,60-60V320.895
	c39.501-2.087,71-34.882,71-74.895V131H80z"/>
<g>
	<path style="fill:#FFDC40;" d="M256,131v360.623C267.003,504.104,283.092,512,301,512c33.084,0,60-26.916,60-60V320.895
		c39.501-2.087,71-34.882,71-74.895V131H256z"/>
	<rect x="241" y="332" style="fill:#FFDC40;" width="30" height="105"/>
</g>
<circle style="fill:#994C0F;" cx="191" cy="246" r="20"/>
<circle style="fill:#713708;" cx="321" cy="246" r="20"/>
<path style="fill:#EBE5DD;" d="M186,191c-24.813,0-45-20.187-45-45v-20c0-52.935-43.065-96-96-96V0h40c80.505,0,146,65.495,146,146
	C231,170.813,210.813,191,186,191z"/>
<path style="fill:#D9CCBC;" d="M326,191c-24.813,0-45-20.187-45-45C281,65.495,346.495,0,427,0h40v30c-52.935,0-96,43.065-96,96v20
	C371,170.813,350.813,191,326,191z"/>
<rect x="256" y="332" style="fill:#FFAB15;" width="15" height="105"/>
<rect x="211" y="422" style="fill:#994C0F;" width="90" height="30"/>
<rect x="256" y="422" style="fill:#713708;" width="45" height="30"/>
<g>
</g>
<g>
</g>
<g>
</g>
<g>
</g>
<g>
</g>
<g>
</g>
<g>
</g>
<g>
</g>
<g>
</g>
<g>
</g>
<g>
</g>
<g>
</g>
<g>
</g>
<g>
</g>
<g>
</g>
</svg>
