<?xml version="1.0" encoding="iso-8859-1"?>
<!-- Generator: Adobe Illustrator 19.0.0, SVG Export Plug-In . SVG Version: 6.00 Build 0)  -->
<svg version="1.1" id="Capa_1" xmlns="http://www.w3.org/2000/svg" xmlns:xlink="http://www.w3.org/1999/xlink" x="0px" y="0px"
	 viewBox="0 0 512 512" style="enable-background:new 0 0 512 512;" xml:space="preserve">
<path style="fill:#994C0F;" d="M361.713,512H355.5c-41.355,0-75-33.645-75-75v-40c0-24.813-20.187-45-45-45l-80-257V0h16
	c47.28,0,86.604,34.718,93.817,80H296.5c107.523,0,195,87.477,195,195v107.213L361.713,512z"/>
<path style="fill:#BF6015;" d="M175.5,512c-85.467,0-155-69.533-155-155V185c0-57.897,47.103-105,105-105h165v217
	c0,25.129-16.939,46.376-40,52.921V437C250.5,478.355,216.855,512,175.5,512z"/>
<circle style="fill:#994C0F;" cx="140.5" cy="427" r="20"/>
<circle style="fill:#713708;" cx="170.5" cy="271" r="20"/>
<path style="fill:#994C0F;" d="M20.5,219.393C88.344,205.972,141.968,150.395,155.055,80H125.5c-57.897,0-105,47.103-105,105
	V219.393z"/>
<path style="fill:#713708;" d="M491.5,275c0-107.523-87.477-195-195-195h-21v56c0,22.091,17.909,40,40,40l0,0
	c16.569,0,30,13.432,30,30l0,0c0,16.568,13.431,30,30,30s30,13.432,30,30v37.574c0,7.957,3.161,15.587,8.787,21.213l67.32,67.32
	l9.893-9.893V275z"/>
<g>
</g>
<g>
</g>
<g>
</g>
<g>
</g>
<g>
</g>
<g>
</g>
<g>
</g>
<g>
</g>
<g>
</g>
<g>
</g>
<g>
</g>
<g>
</g>
<g>
</g>
<g>
</g>
<g>
</g>
</svg>
