<?xml version="1.0" encoding="iso-8859-1"?>
<!-- Generator: Adobe Illustrator 19.0.0, SVG Export Plug-In . SVG Version: 6.00 Build 0)  -->
<svg version="1.1" id="Capa_1" xmlns="http://www.w3.org/2000/svg" xmlns:xlink="http://www.w3.org/1999/xlink" x="0px" y="0px"
	 viewBox="0 0 512 512" style="enable-background:new 0 0 512 512;" xml:space="preserve">
<path style="fill:#D9CCBC;" d="M437,172.5l-74.794-80.594C365.085,52.987,397.938,22.5,437,22.5c41.355,0,75,33.645,75,75
	S478.355,172.5,437,172.5z"/>
<path style="fill:#EBE5DD;" d="M75,172.5c-41.355,0-75-33.645-75-75s33.645-75,75-75c38.19,0,70.228,28.582,74.521,66.484L75,172.5z
	"/>
<path style="fill:#BF6015;" d="M256,489.5c-60.367,0-117.12-23.508-159.807-66.194C53.508,380.621,30,323.867,30,263.5
	s23.508-117.121,66.193-159.806C138.88,61.008,195.633,37.5,256,37.5s117.12,23.508,159.807,66.194
	C458.492,146.379,482,203.133,482,263.5s-23.508,117.121-66.193,159.806C373.12,465.992,316.367,489.5,256,489.5z"/>
<path style="fill:#994C0F;" d="M415.807,103.694C373.12,61.008,316.367,37.5,256,37.5v452c60.367,0,117.12-23.508,159.806-66.194
	C458.492,380.621,482,323.867,482,263.5S458.492,146.379,415.807,103.694z"/>
<path style="fill:#EBE5DD;" d="M256,408.5c-41.355,0-75-33.645-75-75v-29.309c0-8.652-7.039-15.691-15.691-15.691
	c-14.168,0-27.295-6.405-36.014-17.572c-8.72-11.167-11.749-25.456-8.313-39.201l9.104-36.417
	c8.362-33.449,38.282-56.81,72.761-56.81h106.307c34.479,0,64.398,23.361,72.761,56.81l9.104,36.418
	c3.436,13.745,0.406,28.033-8.313,39.2c-8.719,11.167-21.846,17.572-36.014,17.572c-8.652,0-15.691,7.039-15.691,15.691V333.5
	C331,374.855,297.355,408.5,256,408.5z"/>
<path style="fill:#D9CCBC;" d="M391.019,231.728l-9.104-36.418c-8.362-33.449-38.282-56.81-72.761-56.81H256v270
	c41.355,0,75-33.645,75-75v-29.309c0-8.652,7.039-15.691,15.691-15.691c14.168,0,27.295-6.405,36.014-17.572
	C391.425,259.76,394.454,245.472,391.019,231.728z"/>
<circle style="fill:#994C0F;" cx="206" cy="218.5" r="20"/>
<circle style="fill:#713708;" cx="306" cy="218.5" r="20"/>
<rect x="236" y="288.5" style="fill:#994C0F;" width="40" height="30"/>
<rect x="256" y="288.5" style="fill:#713708;" width="20" height="30"/>
<g>
</g>
<g>
</g>
<g>
</g>
<g>
</g>
<g>
</g>
<g>
</g>
<g>
</g>
<g>
</g>
<g>
</g>
<g>
</g>
<g>
</g>
<g>
</g>
<g>
</g>
<g>
</g>
<g>
</g>
</svg>
