<?xml version="1.0" encoding="iso-8859-1"?>
<!-- Generator: Adobe Illustrator 19.0.0, SVG Export Plug-In . SVG Version: 6.00 Build 0)  -->
<svg version="1.1" id="Capa_1" xmlns="http://www.w3.org/2000/svg" xmlns:xlink="http://www.w3.org/1999/xlink" x="0px" y="0px"
	 viewBox="0 0 512 512" style="enable-background:new 0 0 512 512;" xml:space="preserve">
<path style="fill:#FFDC40;" d="M418.469,111.303L329.847,69.54C305.987,63.209,281.142,60,256,60
	c-25.77,0-51.207,3.369-75.607,10.013L93.53,111.304C34.091,154.422,0,218.096,0,286c0,60.748,26.887,117.743,75.706,160.485
	C123.961,488.733,187.99,512,256,512s132.039-23.267,180.294-65.515C485.113,403.743,512,346.748,512,286
	C512,218.096,477.909,154.421,418.469,111.303z"/>
<path style="fill:#FFAB15;" d="M418.469,111.303L329.847,69.54C305.987,63.209,281.142,60,256,60v452
	c68.01,0,132.039-23.267,180.294-65.515C485.113,403.743,512,346.748,512,286C512,218.096,477.909,154.421,418.469,111.303z"/>
<path style="fill:#FFEA84;" d="M256,452c-67.29,0-120-35.14-120-80s52.71-80,120-80s120,35.14,120,80S323.29,452,256,452z"/>
<g>
	<path style="fill:#FFDC40;" d="M256,292v160c67.29,0,120-35.14,120-80S323.29,292,256,292z"/>
	<path style="fill:#FFDC40;" d="M346,150h-35V0h130v55C441,107.383,398.383,150,346,150z"/>
</g>
<path style="fill:#FFEA84;" d="M201,150h-35c-52.383,0-95-42.617-95-95V0h130V150z"/>
<circle style="fill:#FFAB15;" cx="216" cy="372" r="20"/>
<circle style="fill:#FF9400;" cx="296" cy="372" r="20"/>
<circle style="fill:#994C0F;" cx="186" cy="246" r="20"/>
<circle style="fill:#713708;" cx="326" cy="246" r="20"/>
<g>
</g>
<g>
</g>
<g>
</g>
<g>
</g>
<g>
</g>
<g>
</g>
<g>
</g>
<g>
</g>
<g>
</g>
<g>
</g>
<g>
</g>
<g>
</g>
<g>
</g>
<g>
</g>
<g>
</g>
</svg>
