<?xml version="1.0" encoding="iso-8859-1"?>
<!-- Generator: Adobe Illustrator 19.0.0, SVG Export Plug-In . SVG Version: 6.00 Build 0)  -->
<svg version="1.1" id="Capa_1" xmlns="http://www.w3.org/2000/svg" xmlns:xlink="http://www.w3.org/1999/xlink" x="0px" y="0px"
	 viewBox="0 0 512 512" style="enable-background:new 0 0 512 512;" xml:space="preserve">
<path style="fill:#EBE5DD;" d="M256,512c-18.767,0-36.707-8.966-47.991-23.984c0,0,38.467-31.016,47.991-31.016
	c9.524,0,47.992,31.014,47.992,31.014C292.54,503.257,275.048,512,256,512z"/>
<g>
	<path style="fill:#D9CCBC;" d="M256,457v55c19.048,0,36.54-8.743,47.992-23.986C303.992,488.014,265.526,457.001,256,457z"/>
	<path style="fill:#D9CCBC;" d="M426.607,77.461L391,0h-15.333v44.81l6.917,234.482l26.832,13.416l18.822-37.645
		C456.171,199.198,455.562,132.805,426.607,77.461z"/>
</g>
<path style="fill:#EBE5DD;" d="M134.333,48.632V0h-8.414L85.393,77.461c-28.954,55.344-29.563,121.737-1.631,177.603l18.822,37.645
	l26.832-13.416L134.333,48.632z"/>
<path style="fill:#F7F4F0;" d="M418.921,297.631C404.563,273.281,391,250.282,391,203.5V0h-23.52l-4.499,6.024
	c-20.025,26.814-35.529,56.515-46.08,88.275c-10.384,31.254-15.729,63.779-15.897,96.701h-90.008
	c-0.168-32.921-5.514-65.446-15.897-96.701c-10.551-31.76-26.055-61.46-46.08-88.275L144.52,0h-18.601L121,203.5
	c0,46.782-13.563,69.781-27.921,94.131C77.308,324.376,61,352.032,61,407c0,57.897,47.103,105,105,105
	c38.151,0,71.612-20.455,90-50.971C274.388,491.545,307.849,512,346,512c57.897,0,105-47.103,105-105
	C451,352.032,434.692,324.376,418.921,297.631z"/>
<path style="fill:#EBE5DD;" d="M418.921,297.631C404.563,273.281,391,250.282,391,203.5V0h-23.52l-4.499,6.024
	c-20.025,26.814-35.529,56.515-46.08,88.275c-10.384,31.254-15.729,63.779-15.897,96.701H256v270.029
	C274.388,491.545,307.849,512,346,512c57.897,0,105-47.103,105-105C451,352.032,434.692,324.376,418.921,297.631z"/>
<g>
	<rect x="211" y="407" style="fill:#994C0F;" width="90" height="30"/>
	<circle style="fill:#994C0F;" cx="186" cy="341" r="20"/>
</g>
<g>
	<circle style="fill:#713708;" cx="326" cy="341" r="20"/>
	<rect x="256" y="407" style="fill:#713708;" width="45" height="30"/>
</g>
<g>
</g>
<g>
</g>
<g>
</g>
<g>
</g>
<g>
</g>
<g>
</g>
<g>
</g>
<g>
</g>
<g>
</g>
<g>
</g>
<g>
</g>
<g>
</g>
<g>
</g>
<g>
</g>
<g>
</g>
</svg>
