<?xml version="1.0" encoding="iso-8859-1"?>
<!-- Generator: Adobe Illustrator 19.0.0, SVG Export Plug-In . SVG Version: 6.00 Build 0)  -->
<svg version="1.1" id="Capa_1" xmlns="http://www.w3.org/2000/svg" xmlns:xlink="http://www.w3.org/1999/xlink" x="0px" y="0px"
	 viewBox="0 0 512 512" style="enable-background:new 0 0 512 512;" xml:space="preserve">
<rect y="321" style="fill:#EBE5DD;" width="167.92" height="30"/>
<rect x="341.95" y="321" style="fill:#D9CCBC;" width="170.05" height="30"/>
<rect x="103.581" y="303.244" transform="matrix(-0.1476 -0.989 0.989 -0.1476 -252.394 568.0377)" style="fill:#EBE5DD;" width="29.998" height="179.072"/>
<rect x="303.827" y="377.856" transform="matrix(-0.9892 -0.1469 0.1469 -0.9892 724.847 839.2404)" style="fill:#D9CCBC;" width="179.169" height="30.001"/>
<path style="fill:#FFDC40;" d="M95,190c-52.383,0-95-42.617-95-95S42.617,0,95,0s95,42.617,95,95
	c0,21.044-6.742,40.983-19.497,57.663l-39.793,30.393C119.357,187.664,107.343,190,95,190z"/>
<path style="fill:#FFAB15;" d="M417,190c-12.338,0-24.348-2.334-35.695-6.938l-39.812-30.403C328.74,135.98,322,116.042,322,95
	c0-52.383,42.617-95,95-95s95,42.617,95,95S469.383,190,417,190z"/>
<path style="fill:#FFEA84;" d="M256,460.145L114.81,294.238c-26.845-31.542-32.728-74.494-15.354-112.094
	c17.373-37.6,53.896-60.957,95.316-60.957h122.455c41.42,0,77.943,23.357,95.316,60.957c17.374,37.6,11.491,80.551-15.354,112.094
	L256,460.145z"/>
<path style="fill:#FFDC40;" d="M412.544,182.145c-17.373-37.6-53.896-60.957-95.316-60.957H256v338.957l141.19-165.906
	C424.035,262.696,429.918,219.744,412.544,182.145z"/>
<path style="fill:#BF6015;" d="M256,512c-16.542,0-30-13.458-30-30s13.458-30,30-30s30,13.458,30,30S272.542,512,256,512z"/>
<circle style="fill:#994C0F;" cx="206" cy="236" r="20"/>
<circle style="fill:#713708;" cx="306" cy="236" r="20"/>
<path style="fill:#994C0F;" d="M256,452v60c16.542,0,30-13.458,30-30S272.542,452,256,452z"/>
<g>
</g>
<g>
</g>
<g>
</g>
<g>
</g>
<g>
</g>
<g>
</g>
<g>
</g>
<g>
</g>
<g>
</g>
<g>
</g>
<g>
</g>
<g>
</g>
<g>
</g>
<g>
</g>
<g>
</g>
</svg>
