<?xml version="1.0" encoding="iso-8859-1"?>
<!-- Generator: Adobe Illustrator 19.0.0, SVG Export Plug-In . SVG Version: 6.00 Build 0)  -->
<svg version="1.1" id="Capa_1" xmlns="http://www.w3.org/2000/svg" xmlns:xlink="http://www.w3.org/1999/xlink" x="0px" y="0px"
	 viewBox="0 0 512 512" style="enable-background:new 0 0 512 512;" xml:space="preserve">
<path style="fill:#A10101;" d="M412.344,208.518V48c-30.672,6.757-53.688,34.155-53.688,66.828v9.474L412.344,208.518z"/>
<path style="fill:#E8130F;" d="M98.146,43.5v170.747l55.707-90.246v-10.027C153.854,79.791,130.05,51.064,98.146,43.5z"/>
<path style="fill:#FFAB15;" d="M441,204.5h-30V52.018c-29.136,6.419-51,32.445-51,63.482v9h-30v-9c0-52.383,42.617-95,95-95h16
	V204.5z"/>
<path style="fill:#FFDC40;" d="M101,205.5H71v-185h15c52.383,0,95,42.617,95,95v9h-30v-9c0-30.681-21.365-56.464-50-63.253V205.5z"
	/>
<path style="fill:#FFAB15;" d="M166,431.5H0V300.346c0-20.029,7.801-38.861,21.967-53.026l133.426-133.426l21.213,21.213L166,401.5
	V431.5z"/>
<path style="fill:#FF9400;" d="M512,431.5H346l-10.606-296.394l21.213-21.213L490.033,247.32
	C504.199,261.485,512,280.317,512,300.346V431.5z"/>
<polygon style="fill:#E8130F;" points="161,362.059 49,357.961 49,325.039 161,320.941 "/>
<polygon style="fill:#A10101;" points="350,362.059 350,320.941 462,325.039 462,357.961 "/>
<path style="fill:#FFDC40;" d="M285,491.5h-59c-41.355,0-75-33.645-75-75v-307h209v307C360,457.855,326.355,491.5,285,491.5z"/>
<path style="fill:#FFAB15;" d="M256,109.5v382h29c41.355,0,75-33.645,75-75v-307H256z"/>
<rect x="181" y="311.5" style="fill:#E8130F;" width="149" height="120"/>
<rect x="255.5" y="311.5" style="fill:#A10101;" width="74.5" height="120"/>
<rect id="SVGCleanerId_0" x="241" y="266.5" style="fill:#FFAB15;" width="30" height="45"/>
<rect x="201" y="326.5" style="fill:#F7F4F0;" width="30" height="45"/>
<rect x="281" y="326.5" style="fill:#EBE5DD;" width="30" height="45"/>
<circle style="fill:#994C0F;" cx="106" cy="266.5" r="20"/>
<circle style="fill:#713708;" cx="406" cy="266.5" r="20"/>
<polygon style="fill:#E8130F;" points="272.461,221.5 239.539,221.5 235.441,109.5 276.559,109.5 "/>
<g>
	<rect id="SVGCleanerId_0_1_" x="241" y="266.5" style="fill:#FFAB15;" width="30" height="45"/>
</g>
<rect x="256" y="266.5" style="fill:#FF9400;" width="15" height="45"/>
<rect x="211" y="251.5" style="fill:#994C0F;" width="90" height="30"/>
<rect x="256" y="251.5" style="fill:#713708;" width="45" height="30"/>
<polygon style="fill:#A10101;" points="255.5,109.5 255.5,221.5 272.461,221.5 276.559,109.5 "/>
<g>
</g>
<g>
</g>
<g>
</g>
<g>
</g>
<g>
</g>
<g>
</g>
<g>
</g>
<g>
</g>
<g>
</g>
<g>
</g>
<g>
</g>
<g>
</g>
<g>
</g>
<g>
</g>
<g>
</g>
</svg>
