<?xml version="1.0" encoding="iso-8859-1"?>
<!-- Generator: Adobe Illustrator 19.0.0, SVG Export Plug-In . SVG Version: 6.00 Build 0)  -->
<svg version="1.1" id="Capa_1" xmlns="http://www.w3.org/2000/svg" xmlns:xlink="http://www.w3.org/1999/xlink" x="0px" y="0px"
	 viewBox="0 0 512 512" style="enable-background:new 0 0 512 512;" xml:space="preserve">
<path style="fill:#AA4141;" d="M256.908,7.649C119.748,7.649,8.558,118.839,8.558,256s111.19,248.35,248.35,248.35
	S505.259,393.16,505.259,256S394.068,7.649,256.908,7.649z"/>
<path style="fill:#FFEBBE;" d="M256.908,461.69c-112.562,0-203.811-91.249-203.811-203.811S144.346,54.068,256.908,54.068
	s203.811,91.249,203.811,203.811S369.47,461.69,256.908,461.69z"/>
<path style="fill:#F7DBB5;" d="M383.161,97.878c5.146,23.492,7.883,47.885,7.883,72.922c0,122.218-64.638,229.326-161.584,289.044
	c8.979,1.209,18.138,1.846,27.448,1.846c112.562,0,203.811-91.249,203.811-203.811C460.719,192.999,430.4,135.205,383.161,97.878z"
	/>
<path style="fill:#FFCF65;" d="M248.638,52.372L70.466,346.799c-3.898,6.442,0.74,14.671,8.27,14.671h356.345
	c7.53,0,12.168-8.229,8.27-14.671L265.178,52.372C261.417,46.156,252.4,46.156,248.638,52.372z"/>
<path style="fill:#FFA664;" d="M432.45,361.47c3.342-5.651,6.418-11.476,9.212-17.46l-59.081-97.63
	c-9.52,41.83-26.762,80.723-50.162,115.09H432.45z"/>
<path style="fill:#FF915A;" d="M248.641,463.391L71.337,170.797c-3.904-6.442,0.734-14.676,8.267-14.676h354.609
	c7.533,0,12.171,8.234,8.267,14.676L265.175,463.391C261.413,469.6,252.404,469.6,248.641,463.391z"/>
<g>
	<path style="fill:#FF7F5C;" d="M441.795,171.97c-2.522-5.418-5.281-10.702-8.253-15.849h-42.79
		c0.209,4.867,0.318,9.76,0.318,14.679c0,43.212-8.09,84.531-22.821,122.539L441.795,171.97z"/>
	<path style="fill:#FF7F5C;" d="M247.501,461.466c3.127,0.145,6.271,0.224,9.433,0.224c3.163,0,6.306-0.083,9.434-0.225
		l40.806-67.339c-19.216,21.952-41.217,41.402-65.452,57.804L247.501,461.466z"/>
</g>
<g>
	<path style="fill:#FF7955;" d="M71.365,170.844l52.826,87.176l32.345-53.449l-86.328-40.912
		C69.671,165.977,69.96,168.525,71.365,170.844z"/>
	<path style="fill:#FF7955;" d="M248.668,463.435c1.157,1.91,2.81,3.227,4.651,3.96l2.718-105.926H186.88L248.668,463.435z"/>
</g>
<path style="fill:#FF7F5C;" d="M253.046,461.661l0.472-18.419c-4.014,2.983-8.095,5.881-12.243,8.689l5.779,9.536
	C249.045,461.558,251.041,461.627,253.046,461.661z"/>
<path style="fill:#FF554D;" d="M256.037,361.47l-3.005,105.793c4.186,1.831,9.455,0.566,12.117-3.827l61.789-101.966H256.037z"/>
<path style="fill:#F44D4D;" d="M253.709,443.412l-0.518,18.243c1.237,0.023,2.475,0.036,3.717,0.036
	c3.163,0,6.307-0.083,9.434-0.225l40.806-67.339C291.158,412.392,273.238,428.924,253.709,443.412z"/>
<path style="fill:#FF554D;" d="M443.115,162.091l-85.833,42.48l32.344,53.449l52.826-87.176
	C444.182,167.989,444.237,164.782,443.115,162.091z"/>
<path style="fill:#F44D4D;" d="M389.626,258.019l52.144-86.049c-1.164-2.5-2.385-4.966-3.646-7.409l-47.513,23.515
	c-1,19.938-3.731,39.419-8.029,58.304L389.626,258.019z"/>
<polygon style="fill:#FFB864;" points="124.206,258.019 186.894,361.47 326.952,361.47 389.641,258.019 327.978,156.122 
	185.869,156.122 "/>
<path style="fill:#FF9B50;" d="M389.633,258.032l-7.052-11.652c-3.679,16.166-8.524,31.888-14.42,47.086L389.633,258.032z"/>
<path style="fill:#ED5A5A;" d="M249.022,324.213l-59.658-59.908c-3.874-3.89-3.874-10.197,0-14.088l59.658-59.908
	c3.874-3.89,10.155-3.89,14.029,0l59.658,59.908c3.874,3.89,3.874,10.197,0,14.088l-59.658,59.908
	C259.177,328.104,252.896,328.104,249.022,324.213z"/>
<ellipse style="fill:#FFCF65;" cx="256.04" cy="257.26" rx="20.09" ry="20.18"/>
<path style="fill:#AA4141;" d="M256.908,7.649C119.748,7.649,8.557,118.839,8.557,256s111.191,248.35,248.351,248.35
	s248.351-111.19,248.351-248.351S394.068,7.649,256.908,7.649z M256.908,461.69c-112.562,0-203.811-91.249-203.811-203.811
	S144.346,54.068,256.908,54.068s203.811,91.25,203.811,203.811S369.47,461.69,256.908,461.69z"/>
<path style="fill:#963737;" d="M360.669,30.314c9.758,21.42,17.338,44.038,22.492,67.565C430.4,135.205,460.719,193,460.719,257.88
	c0,112.562-91.249,203.811-203.811,203.811c-9.31,0-18.469-0.637-27.448-1.846c-18.629,11.476-38.449,21.2-59.235,28.945
	c26.989,10.054,56.191,15.561,86.683,15.561c137.16,0,248.351-111.19,248.351-248.351C505.259,155.882,446.01,69.615,360.669,30.314
	z"/>
<path d="M437.019,74.981C388.667,26.628,324.38,0,256,0S123.333,26.628,74.981,74.981C26.628,123.333,0,187.62,0,256
	c0,66.628,25.462,129.727,71.697,177.674c2.932,3.04,7.774,3.129,10.816,0.196c3.041-2.932,3.129-7.775,0.196-10.816
	c-43.47-45.08-67.41-104.409-67.41-167.054c0-64.294,25.037-124.739,70.5-170.201c45.462-45.463,105.907-70.5,170.201-70.5
	s124.739,25.037,170.201,70.5c45.463,45.462,70.5,105.907,70.5,170.201s-25.037,124.738-70.5,170.201
	c-45.462,45.462-105.907,70.5-170.201,70.5c-44.081,0-87.191-12.021-124.673-34.762c-5.738-3.481-11.406-7.255-16.847-11.215
	c-3.414-2.485-8.2-1.734-10.686,1.682c-2.486,3.415-1.733,8.2,1.682,10.686c5.785,4.211,11.813,8.224,17.915,11.926
	C163.266,499.212,209.121,512,256,512c68.38,0,132.667-26.628,181.019-74.981C485.372,388.667,512,324.379,512,256
	C512,187.62,485.372,123.333,437.019,74.981z"/>
<path d="M174.651,71.624c-1.87-3.788-6.454-5.343-10.245-3.474c-33.66,16.614-62.609,42.218-83.25,73.567
	c-22.57,34.277-34.737,74.98-34.737,116.163c0,25.011,4.439,49.98,13.15,73.429c2.116,5.697,4.999,11.119,7.089,16.8
	c2.062,5.605,4.433,9.429,7.555,14.455c5.315,8.555,10.543,17.001,16.741,24.968c24.912,32.023,58.983,56.627,97.291,70.027
	c22.339,7.814,45.971,11.781,69.634,11.781c116.6,0,211.461-94.861,211.461-211.46c0-98.322-70.859-186.105-167.031-206.748
	c-32.299-6.933-65.904-6.229-97.891,2.106c-4.089,1.066-6.539,5.243-5.474,9.331c1.065,4.089,5.24,6.537,9.331,5.474
	c9.42-2.455,19.043-4.18,28.769-5.207l-53.394,87.863H93.594c19.271-29.48,46.032-53.256,77.584-68.829
	C174.966,79.999,176.521,75.411,174.651,71.624z M75.656,185.155l43.557,71.578l-44.058,72.5
	c-8.67-22.125-13.437-46.193-13.437-71.354C61.718,232.777,66.484,208.139,75.656,185.155z M430.238,166.865
	c0.223,0.396,0.398,1.017-0.03,1.721l-44.68,73.424l-46.192-76.013h89.417C429.577,165.996,430.015,166.468,430.238,166.865z
	 M376.571,256.729l-55.837,92.237H193.246l-56.128-92.237l55.137-90.732h129.18L376.571,256.729z M431.079,348.098
	c-0.222,0.395-0.661,0.868-1.484,0.868h-91.243l47.168-77.511l45.53,74.924C431.477,347.082,431.302,347.701,431.079,348.098z
	 M175.338,348.965H84.193c-0.486-0.922-0.968-1.846-1.439-2.776l45.416-74.736L175.338,348.965z M93.147,364.264h91.5l54.06,88.839
	C177.731,447.16,124.85,413.185,93.147,364.264z M274.865,453.297l38.819-63.792c2.196-3.609,1.051-8.315-2.559-10.511
	c-3.608-2.194-8.314-1.05-10.511,2.559L258.3,451.089c-0.411,0.676-1.018,0.818-1.455,0.818c-0.436,0-1.043-0.141-1.454-0.818
	l-52.834-86.825h220.057C390.532,413.769,336.762,447.963,274.865,453.297z M439.779,331.285l-45.303-74.55l44.768-73.568
	c9.527,23.041,14.798,48.271,14.798,74.713C454.042,283.822,448.968,308.598,439.779,331.285z M422.088,150.697h-92.049
	l-53.531-88.09C337.38,68.369,390.234,102.061,422.088,150.697z M255.389,62.104c0.088-0.144,0.187-0.252,0.289-0.352
	c0.734-0.008,1.467-0.035,2.201-0.035c0.035,0,0.07,0.001,0.105,0.001c0.113,0.105,0.221,0.228,0.316,0.385l53.837,88.594H201.552
	L255.389,62.104z M128.161,242.008l-44.679-73.423c-0.068-0.112-0.098-0.218-0.138-0.325c0.379-0.737,0.766-1.469,1.155-2.201
	c0.135-0.033,0.274-0.064,0.439-0.064h89.416L128.161,242.008z"/>
<path d="M185.947,243.789c-6.732,6.733-6.732,17.688,0,24.421l57.843,57.843c3.367,3.366,7.789,5.049,12.21,5.049
	s8.844-1.683,12.21-5.049l57.843-57.843c6.732-6.733,6.732-17.688,0-24.421l-57.843-57.843c-6.733-6.731-17.687-6.731-24.42,0
	L185.947,243.789z M256,196.189c0.504,0,1.008,0.191,1.391,0.576l57.843,57.843c0.768,0.767,0.768,2.017,0,2.784l-57.843,57.843
	c-0.767,0.769-2.016,0.769-2.783,0l-57.843-57.843c-0.768-0.767-0.768-2.017,0-2.784l57.843-57.843
	C254.992,196.38,255.496,196.189,256,196.189z"/>
<path d="M256,283.129c14.959,0,27.129-12.17,27.129-27.129c0-14.96-12.17-27.13-27.129-27.13s-27.129,12.17-27.129,27.13
	C228.871,270.959,241.041,283.129,256,283.129z M256,244.168c6.524,0,11.831,5.308,11.831,11.832
	c0,6.524-5.307,11.831-11.831,11.831c-6.524,0-11.831-5.307-11.831-11.831C244.169,249.476,249.476,244.168,256,244.168z"/>
<g>
</g>
<g>
</g>
<g>
</g>
<g>
</g>
<g>
</g>
<g>
</g>
<g>
</g>
<g>
</g>
<g>
</g>
<g>
</g>
<g>
</g>
<g>
</g>
<g>
</g>
<g>
</g>
<g>
</g>
</svg>
